ply
format ascii 1.0
comment TextureFile factory_building_01_texture.png
comment UV coordinates are stored as vertex properties s and t. Assign the sibling PNG as the diffuse/base-color texture if your viewer does not auto-load it.
element vertex 134
property float x
property float y
property float z
property float nx
property float ny
property float nz
property float s
property float t
element face 34
property list uchar int vertex_indices
end_header
-8.000000 -3.600000 0.000000 0.000000 -1.000000 0.000000 0.000000 0.000000
8.000000 -3.600000 0.000000 0.000000 -1.000000 0.000000 0.500000 0.000000
8.000000 -3.600000 3.200000 0.000000 -1.000000 0.000000 0.500000 0.500000
-8.000000 -3.600000 3.200000 0.000000 -1.000000 0.000000 0.000000 0.500000
8.000000 3.600000 0.000000 0.000000 1.000000 0.000000 0.000000 0.000000
-8.000000 3.600000 0.000000 0.000000 1.000000 0.000000 0.500000 0.000000
-8.000000 3.600000 3.200000 0.000000 1.000000 0.000000 0.500000 0.500000
8.000000 3.600000 3.200000 0.000000 1.000000 0.000000 0.000000 0.500000
-8.000000 3.600000 0.000000 -1.000000 0.000000 0.000000 0.000000 0.000000
-8.000000 -3.600000 0.000000 -1.000000 0.000000 0.000000 0.500000 0.000000
-8.000000 -3.600000 3.200000 -1.000000 0.000000 0.000000 0.500000 0.500000
-8.000000 3.600000 3.200000 -1.000000 0.000000 0.000000 0.000000 0.500000
8.000000 -3.600000 0.000000 1.000000 0.000000 0.000000 0.000000 0.000000
8.000000 3.600000 0.000000 1.000000 0.000000 0.000000 0.500000 0.000000
8.000000 3.600000 3.200000 1.000000 0.000000 0.000000 0.500000 0.500000
8.000000 -3.600000 3.200000 1.000000 0.000000 0.000000 0.000000 0.500000
-8.000000 -3.600000 3.200000 0.000000 0.000000 1.000000 0.500000 0.000000
8.000000 -3.600000 3.200000 0.000000 0.000000 1.000000 1.000000 0.000000
8.000000 3.600000 3.200000 0.000000 0.000000 1.000000 1.000000 0.500000
-8.000000 3.600000 3.200000 0.000000 0.000000 1.000000 0.500000 0.500000
-8.000000 3.600000 0.000000 0.000000 0.000000 -1.000000 0.500000 0.500000
8.000000 3.600000 0.000000 0.000000 0.000000 -1.000000 1.000000 0.500000
8.000000 -3.600000 0.000000 0.000000 0.000000 -1.000000 1.000000 0.750000
-8.000000 -3.600000 0.000000 0.000000 0.000000 -1.000000 0.500000 0.750000
-8.000000 -3.600000 3.200000 0.000000 -0.466759 0.884385 0.500000 0.000000
8.000000 -3.600000 3.200000 0.000000 -0.466759 0.884385 1.000000 0.000000
8.000000 0.000000 5.100000 0.000000 -0.466759 0.884385 1.000000 0.500000
-8.000000 0.000000 5.100000 0.000000 -0.466759 0.884385 0.500000 0.500000
8.000000 3.600000 3.200000 0.000000 0.466759 0.884385 0.500000 0.000000
-8.000000 3.600000 3.200000 0.000000 0.466759 0.884385 1.000000 0.000000
-8.000000 0.000000 5.100000 0.000000 0.466759 0.884385 1.000000 0.500000
8.000000 0.000000 5.100000 0.000000 0.466759 0.884385 0.500000 0.500000
-8.000000 -3.600000 3.200000 1.000000 0.000000 0.000000 0.250000 0.000000
-8.000000 3.600000 3.200000 1.000000 0.000000 0.000000 0.500000 0.500000
-8.000000 0.000000 5.100000 1.000000 0.000000 0.000000 0.000000 0.500000
8.000000 3.600000 3.200000 -1.000000 0.000000 0.000000 0.250000 0.000000
8.000000 -3.600000 3.200000 -1.000000 0.000000 0.000000 0.500000 0.500000
8.000000 0.000000 5.100000 -1.000000 0.000000 0.000000 0.000000 0.500000
-6.800000 -4.200000 0.000000 0.000000 -1.000000 0.000000 0.000000 0.500000
-3.800000 -4.200000 0.000000 0.000000 -1.000000 0.000000 0.250000 0.500000
-3.800000 -4.200000 1.700000 0.000000 -1.000000 0.000000 0.250000 0.750000
-6.800000 -4.200000 1.700000 0.000000 -1.000000 0.000000 0.000000 0.750000
-3.800000 -3.550000 0.000000 0.000000 1.000000 0.000000 0.000000 0.500000
-6.800000 -3.550000 0.000000 0.000000 1.000000 0.000000 0.250000 0.500000
-6.800000 -3.550000 1.700000 0.000000 1.000000 0.000000 0.250000 0.750000
-3.800000 -3.550000 1.700000 0.000000 1.000000 0.000000 0.000000 0.750000
-6.800000 -3.550000 0.000000 -1.000000 0.000000 0.000000 0.000000 0.500000
-6.800000 -4.200000 0.000000 -1.000000 0.000000 0.000000 0.250000 0.500000
-6.800000 -4.200000 1.700000 -1.000000 0.000000 0.000000 0.250000 0.750000
-6.800000 -3.550000 1.700000 -1.000000 0.000000 0.000000 0.000000 0.750000
-3.800000 -4.200000 0.000000 1.000000 0.000000 0.000000 0.000000 0.500000
-3.800000 -3.550000 0.000000 1.000000 0.000000 0.000000 0.250000 0.500000
-3.800000 -3.550000 1.700000 1.000000 0.000000 0.000000 0.250000 0.750000
-3.800000 -4.200000 1.700000 1.000000 0.000000 0.000000 0.000000 0.750000
-6.800000 -4.200000 1.700000 0.000000 0.000000 1.000000 0.500000 0.000000
-3.800000 -4.200000 1.700000 0.000000 0.000000 1.000000 1.000000 0.000000
-3.800000 -3.550000 1.700000 0.000000 0.000000 1.000000 1.000000 0.500000
-6.800000 -3.550000 1.700000 0.000000 0.000000 1.000000 0.500000 0.500000
-6.800000 -3.550000 0.000000 0.000000 0.000000 -1.000000 0.500000 0.500000
-3.800000 -3.550000 0.000000 0.000000 0.000000 -1.000000 1.000000 0.500000
-3.800000 -4.200000 0.000000 0.000000 0.000000 -1.000000 1.000000 0.750000
-6.800000 -4.200000 0.000000 0.000000 0.000000 -1.000000 0.500000 0.750000
-3.400000 -4.200000 0.000000 0.000000 -1.000000 0.000000 0.000000 0.500000
-0.400000 -4.200000 0.000000 0.000000 -1.000000 0.000000 0.250000 0.500000
-0.400000 -4.200000 1.700000 0.000000 -1.000000 0.000000 0.250000 0.750000
-3.400000 -4.200000 1.700000 0.000000 -1.000000 0.000000 0.000000 0.750000
-0.400000 -3.550000 0.000000 0.000000 1.000000 0.000000 0.000000 0.500000
-3.400000 -3.550000 0.000000 0.000000 1.000000 0.000000 0.250000 0.500000
-3.400000 -3.550000 1.700000 0.000000 1.000000 0.000000 0.250000 0.750000
-0.400000 -3.550000 1.700000 0.000000 1.000000 0.000000 0.000000 0.750000
-3.400000 -3.550000 0.000000 -1.000000 0.000000 0.000000 0.000000 0.500000
-3.400000 -4.200000 0.000000 -1.000000 0.000000 0.000000 0.250000 0.500000
-3.400000 -4.200000 1.700000 -1.000000 0.000000 0.000000 0.250000 0.750000
-3.400000 -3.550000 1.700000 -1.000000 0.000000 0.000000 0.000000 0.750000
-0.400000 -4.200000 0.000000 1.000000 0.000000 0.000000 0.000000 0.500000
-0.400000 -3.550000 0.000000 1.000000 0.000000 0.000000 0.250000 0.500000
-0.400000 -3.550000 1.700000 1.000000 0.000000 0.000000 0.250000 0.750000
-0.400000 -4.200000 1.700000 1.000000 0.000000 0.000000 0.000000 0.750000
-3.400000 -4.200000 1.700000 0.000000 0.000000 1.000000 0.500000 0.000000
-0.400000 -4.200000 1.700000 0.000000 0.000000 1.000000 1.000000 0.000000
-0.400000 -3.550000 1.700000 0.000000 0.000000 1.000000 1.000000 0.500000
-3.400000 -3.550000 1.700000 0.000000 0.000000 1.000000 0.500000 0.500000
-3.400000 -3.550000 0.000000 0.000000 0.000000 -1.000000 0.500000 0.500000
-0.400000 -3.550000 0.000000 0.000000 0.000000 -1.000000 1.000000 0.500000
-0.400000 -4.200000 0.000000 0.000000 0.000000 -1.000000 1.000000 0.750000
-3.400000 -4.200000 0.000000 0.000000 0.000000 -1.000000 0.500000 0.750000
4.800000 -4.000000 0.000000 0.000000 -1.000000 0.000000 0.000000 0.500000
7.800000 -4.000000 0.000000 0.000000 -1.000000 0.000000 0.250000 0.500000
7.800000 -4.000000 1.100000 0.000000 -1.000000 0.000000 0.250000 0.750000
4.800000 -4.000000 1.100000 0.000000 -1.000000 0.000000 0.000000 0.750000
7.800000 -3.550000 0.000000 0.000000 1.000000 0.000000 0.000000 0.500000
4.800000 -3.550000 0.000000 0.000000 1.000000 0.000000 0.250000 0.500000
4.800000 -3.550000 1.100000 0.000000 1.000000 0.000000 0.250000 0.750000
7.800000 -3.550000 1.100000 0.000000 1.000000 0.000000 0.000000 0.750000
4.800000 -3.550000 0.000000 -1.000000 0.000000 0.000000 0.000000 0.500000
4.800000 -4.000000 0.000000 -1.000000 0.000000 0.000000 0.250000 0.500000
4.800000 -4.000000 1.100000 -1.000000 0.000000 0.000000 0.250000 0.750000
4.800000 -3.550000 1.100000 -1.000000 0.000000 0.000000 0.000000 0.750000
7.800000 -4.000000 0.000000 1.000000 0.000000 0.000000 0.000000 0.500000
7.800000 -3.550000 0.000000 1.000000 0.000000 0.000000 0.250000 0.500000
7.800000 -3.550000 1.100000 1.000000 0.000000 0.000000 0.250000 0.750000
7.800000 -4.000000 1.100000 1.000000 0.000000 0.000000 0.000000 0.750000
4.800000 -4.000000 1.100000 0.000000 0.000000 1.000000 0.500000 0.000000
7.800000 -4.000000 1.100000 0.000000 0.000000 1.000000 1.000000 0.000000
7.800000 -3.550000 1.100000 0.000000 0.000000 1.000000 1.000000 0.500000
4.800000 -3.550000 1.100000 0.000000 0.000000 1.000000 0.500000 0.500000
4.800000 -3.550000 0.000000 0.000000 0.000000 -1.000000 0.500000 0.500000
7.800000 -3.550000 0.000000 0.000000 0.000000 -1.000000 1.000000 0.500000
7.800000 -4.000000 0.000000 0.000000 0.000000 -1.000000 1.000000 0.750000
4.800000 -4.000000 0.000000 0.000000 0.000000 -1.000000 0.500000 0.750000
-8.500000 -4.700000 -0.050000 0.000000 -1.000000 0.000000 0.500000 0.750000
8.500000 -4.700000 -0.050000 0.000000 -1.000000 0.000000 1.000000 0.750000
8.500000 -4.700000 0.200000 0.000000 -1.000000 0.000000 1.000000 1.000000
-8.500000 -4.700000 0.200000 0.000000 -1.000000 0.000000 0.500000 1.000000
8.500000 -4.150000 -0.050000 0.000000 1.000000 0.000000 0.500000 0.750000
-8.500000 -4.150000 -0.050000 0.000000 1.000000 0.000000 1.000000 0.750000
-8.500000 -4.150000 0.200000 0.000000 1.000000 0.000000 1.000000 1.000000
8.500000 -4.150000 0.200000 0.000000 1.000000 0.000000 0.500000 1.000000
-8.500000 -4.150000 -0.050000 -1.000000 0.000000 0.000000 0.500000 0.750000
-8.500000 -4.700000 -0.050000 -1.000000 0.000000 0.000000 1.000000 0.750000
-8.500000 -4.700000 0.200000 -1.000000 0.000000 0.000000 1.000000 1.000000
-8.500000 -4.150000 0.200000 -1.000000 0.000000 0.000000 0.500000 1.000000
8.500000 -4.700000 -0.050000 1.000000 0.000000 0.000000 0.500000 0.750000
8.500000 -4.150000 -0.050000 1.000000 0.000000 0.000000 1.000000 0.750000
8.500000 -4.150000 0.200000 1.000000 0.000000 0.000000 1.000000 1.000000
8.500000 -4.700000 0.200000 1.000000 0.000000 0.000000 0.500000 1.000000
-8.500000 -4.700000 0.200000 0.000000 0.000000 1.000000 0.500000 0.750000
8.500000 -4.700000 0.200000 0.000000 0.000000 1.000000 1.000000 0.750000
8.500000 -4.150000 0.200000 0.000000 0.000000 1.000000 1.000000 1.000000
-8.500000 -4.150000 0.200000 0.000000 0.000000 1.000000 0.500000 1.000000
-8.500000 -4.150000 -0.050000 0.000000 0.000000 -1.000000 0.500000 0.500000
8.500000 -4.150000 -0.050000 0.000000 0.000000 -1.000000 1.000000 0.500000
8.500000 -4.700000 -0.050000 0.000000 0.000000 -1.000000 1.000000 0.750000
-8.500000 -4.700000 -0.050000 0.000000 0.000000 -1.000000 0.500000 0.750000
4 0 1 2 3
4 4 5 6 7
4 8 9 10 11
4 12 13 14 15
4 16 17 18 19
4 20 21 22 23
4 24 25 26 27
4 28 29 30 31
3 32 33 34
3 35 36 37
4 38 39 40 41
4 42 43 44 45
4 46 47 48 49
4 50 51 52 53
4 54 55 56 57
4 58 59 60 61
4 62 63 64 65
4 66 67 68 69
4 70 71 72 73
4 74 75 76 77
4 78 79 80 81
4 82 83 84 85
4 86 87 88 89
4 90 91 92 93
4 94 95 96 97
4 98 99 100 101
4 102 103 104 105
4 106 107 108 109
4 110 111 112 113
4 114 115 116 117
4 118 119 120 121
4 122 123 124 125
4 126 127 128 129
4 130 131 132 133
