ply
format ascii 1.0
comment TextureFile factory_building_02_texture.png
comment UV coordinates are stored as vertex properties s and t. Assign the sibling PNG as the diffuse/base-color texture if your viewer does not auto-load it.
element vertex 120
property float x
property float y
property float z
property float nx
property float ny
property float nz
property float s
property float t
element face 30
property list uchar int vertex_indices
end_header
-6.000000 -4.000000 0.000000 0.000000 -1.000000 0.000000 0.000000 0.000000
2.000000 -4.000000 0.000000 0.000000 -1.000000 0.000000 0.500000 0.000000
2.000000 -4.000000 3.400000 0.000000 -1.000000 0.000000 0.500000 0.500000
-6.000000 -4.000000 3.400000 0.000000 -1.000000 0.000000 0.000000 0.500000
2.000000 2.000000 0.000000 0.000000 1.000000 0.000000 0.000000 0.000000
-6.000000 2.000000 0.000000 0.000000 1.000000 0.000000 0.500000 0.000000
-6.000000 2.000000 3.400000 0.000000 1.000000 0.000000 0.500000 0.500000
2.000000 2.000000 3.400000 0.000000 1.000000 0.000000 0.000000 0.500000
-6.000000 2.000000 0.000000 -1.000000 0.000000 0.000000 0.000000 0.000000
-6.000000 -4.000000 0.000000 -1.000000 0.000000 0.000000 0.500000 0.000000
-6.000000 -4.000000 3.400000 -1.000000 0.000000 0.000000 0.500000 0.500000
-6.000000 2.000000 3.400000 -1.000000 0.000000 0.000000 0.000000 0.500000
2.000000 -4.000000 0.000000 1.000000 0.000000 0.000000 0.000000 0.000000
2.000000 2.000000 0.000000 1.000000 0.000000 0.000000 0.500000 0.000000
2.000000 2.000000 3.400000 1.000000 0.000000 0.000000 0.500000 0.500000
2.000000 -4.000000 3.400000 1.000000 0.000000 0.000000 0.000000 0.500000
-6.000000 -4.000000 3.400000 0.000000 0.000000 1.000000 0.500000 0.000000
2.000000 -4.000000 3.400000 0.000000 0.000000 1.000000 1.000000 0.000000
2.000000 2.000000 3.400000 0.000000 0.000000 1.000000 1.000000 0.500000
-6.000000 2.000000 3.400000 0.000000 0.000000 1.000000 0.500000 0.500000
-6.000000 2.000000 0.000000 0.000000 0.000000 -1.000000 0.500000 0.500000
2.000000 2.000000 0.000000 0.000000 0.000000 -1.000000 1.000000 0.500000
2.000000 -4.000000 0.000000 0.000000 0.000000 -1.000000 1.000000 0.750000
-6.000000 -4.000000 0.000000 0.000000 0.000000 -1.000000 0.500000 0.750000
1.600000 -1.500000 0.000000 0.000000 -1.000000 0.000000 0.250000 0.500000
6.000000 -1.500000 0.000000 0.000000 -1.000000 0.000000 0.500000 0.500000
6.000000 -1.500000 4.500000 0.000000 -1.000000 0.000000 0.500000 0.750000
1.600000 -1.500000 4.500000 0.000000 -1.000000 0.000000 0.250000 0.750000
6.000000 4.500000 0.000000 0.000000 1.000000 0.000000 0.250000 0.500000
1.600000 4.500000 0.000000 0.000000 1.000000 0.000000 0.500000 0.500000
1.600000 4.500000 4.500000 0.000000 1.000000 0.000000 0.500000 0.750000
6.000000 4.500000 4.500000 0.000000 1.000000 0.000000 0.250000 0.750000
1.600000 4.500000 0.000000 -1.000000 0.000000 0.000000 0.250000 0.500000
1.600000 -1.500000 0.000000 -1.000000 0.000000 0.000000 0.500000 0.500000
1.600000 -1.500000 4.500000 -1.000000 0.000000 0.000000 0.500000 0.750000
1.600000 4.500000 4.500000 -1.000000 0.000000 0.000000 0.250000 0.750000
6.000000 -1.500000 0.000000 1.000000 0.000000 0.000000 0.250000 0.500000
6.000000 4.500000 0.000000 1.000000 0.000000 0.000000 0.500000 0.500000
6.000000 4.500000 4.500000 1.000000 0.000000 0.000000 0.500000 0.750000
6.000000 -1.500000 4.500000 1.000000 0.000000 0.000000 0.250000 0.750000
1.600000 -1.500000 4.500000 0.000000 0.000000 1.000000 0.500000 0.000000
6.000000 -1.500000 4.500000 0.000000 0.000000 1.000000 1.000000 0.000000
6.000000 4.500000 4.500000 0.000000 0.000000 1.000000 1.000000 0.500000
1.600000 4.500000 4.500000 0.000000 0.000000 1.000000 0.500000 0.500000
1.600000 4.500000 0.000000 0.000000 0.000000 -1.000000 0.500000 0.500000
6.000000 4.500000 0.000000 0.000000 0.000000 -1.000000 1.000000 0.500000
6.000000 -1.500000 0.000000 0.000000 0.000000 -1.000000 1.000000 0.750000
1.600000 -1.500000 0.000000 0.000000 0.000000 -1.000000 0.500000 0.750000
-6.000000 2.000000 0.000000 0.000000 -1.000000 0.000000 0.000000 0.000000
-2.000000 2.000000 0.000000 0.000000 -1.000000 0.000000 0.500000 0.000000
-2.000000 2.000000 2.800000 0.000000 -1.000000 0.000000 0.500000 0.500000
-6.000000 2.000000 2.800000 0.000000 -1.000000 0.000000 0.000000 0.500000
-2.000000 5.200000 0.000000 0.000000 1.000000 0.000000 0.000000 0.000000
-6.000000 5.200000 0.000000 0.000000 1.000000 0.000000 0.500000 0.000000
-6.000000 5.200000 2.800000 0.000000 1.000000 0.000000 0.500000 0.500000
-2.000000 5.200000 2.800000 0.000000 1.000000 0.000000 0.000000 0.500000
-6.000000 5.200000 0.000000 -1.000000 0.000000 0.000000 0.000000 0.000000
-6.000000 2.000000 0.000000 -1.000000 0.000000 0.000000 0.500000 0.000000
-6.000000 2.000000 2.800000 -1.000000 0.000000 0.000000 0.500000 0.500000
-6.000000 5.200000 2.800000 -1.000000 0.000000 0.000000 0.000000 0.500000
-2.000000 2.000000 0.000000 1.000000 0.000000 0.000000 0.000000 0.000000
-2.000000 5.200000 0.000000 1.000000 0.000000 0.000000 0.500000 0.000000
-2.000000 5.200000 2.800000 1.000000 0.000000 0.000000 0.500000 0.500000
-2.000000 2.000000 2.800000 1.000000 0.000000 0.000000 0.000000 0.500000
-6.000000 2.000000 2.800000 0.000000 0.000000 1.000000 0.500000 0.000000
-2.000000 2.000000 2.800000 0.000000 0.000000 1.000000 1.000000 0.000000
-2.000000 5.200000 2.800000 0.000000 0.000000 1.000000 1.000000 0.500000
-6.000000 5.200000 2.800000 0.000000 0.000000 1.000000 0.500000 0.500000
-6.000000 5.200000 0.000000 0.000000 0.000000 -1.000000 0.500000 0.500000
-2.000000 5.200000 0.000000 0.000000 0.000000 -1.000000 1.000000 0.500000
-2.000000 2.000000 0.000000 0.000000 0.000000 -1.000000 1.000000 0.750000
-6.000000 2.000000 0.000000 0.000000 0.000000 -1.000000 0.500000 0.750000
-0.400000 -3.200000 0.000000 0.000000 -1.000000 0.000000 0.000000 0.500000
1.400000 -3.200000 0.000000 0.000000 -1.000000 0.000000 0.250000 0.500000
1.400000 -3.200000 2.200000 0.000000 -1.000000 0.000000 0.250000 0.750000
-0.400000 -3.200000 2.200000 0.000000 -1.000000 0.000000 0.000000 0.750000
1.400000 -2.500000 0.000000 0.000000 1.000000 0.000000 0.000000 0.500000
-0.400000 -2.500000 0.000000 0.000000 1.000000 0.000000 0.250000 0.500000
-0.400000 -2.500000 2.200000 0.000000 1.000000 0.000000 0.250000 0.750000
1.400000 -2.500000 2.200000 0.000000 1.000000 0.000000 0.000000 0.750000
-0.400000 -2.500000 0.000000 -1.000000 0.000000 0.000000 0.000000 0.500000
-0.400000 -3.200000 0.000000 -1.000000 0.000000 0.000000 0.250000 0.500000
-0.400000 -3.200000 2.200000 -1.000000 0.000000 0.000000 0.250000 0.750000
-0.400000 -2.500000 2.200000 -1.000000 0.000000 0.000000 0.000000 0.750000
1.400000 -3.200000 0.000000 1.000000 0.000000 0.000000 0.000000 0.500000
1.400000 -2.500000 0.000000 1.000000 0.000000 0.000000 0.250000 0.500000
1.400000 -2.500000 2.200000 1.000000 0.000000 0.000000 0.250000 0.750000
1.400000 -3.200000 2.200000 1.000000 0.000000 0.000000 0.000000 0.750000
-0.400000 -3.200000 2.200000 0.000000 0.000000 1.000000 0.500000 0.000000
1.400000 -3.200000 2.200000 0.000000 0.000000 1.000000 1.000000 0.000000
1.400000 -2.500000 2.200000 0.000000 0.000000 1.000000 1.000000 0.500000
-0.400000 -2.500000 2.200000 0.000000 0.000000 1.000000 0.500000 0.500000
-0.400000 -2.500000 0.000000 0.000000 0.000000 -1.000000 0.500000 0.500000
1.400000 -2.500000 0.000000 0.000000 0.000000 -1.000000 1.000000 0.500000
1.400000 -3.200000 0.000000 0.000000 0.000000 -1.000000 1.000000 0.750000
-0.400000 -3.200000 0.000000 0.000000 0.000000 -1.000000 0.500000 0.750000
-6.500000 -4.600000 -0.050000 0.000000 -1.000000 0.000000 0.500000 0.500000
6.500000 -4.600000 -0.050000 0.000000 -1.000000 0.000000 1.000000 0.500000
6.500000 -4.600000 0.180000 0.000000 -1.000000 0.000000 1.000000 0.750000
-6.500000 -4.600000 0.180000 0.000000 -1.000000 0.000000 0.500000 0.750000
6.500000 5.600000 -0.050000 0.000000 1.000000 0.000000 0.500000 0.500000
-6.500000 5.600000 -0.050000 0.000000 1.000000 0.000000 1.000000 0.500000
-6.500000 5.600000 0.180000 0.000000 1.000000 0.000000 1.000000 0.750000
6.500000 5.600000 0.180000 0.000000 1.000000 0.000000 0.500000 0.750000
-6.500000 5.600000 -0.050000 -1.000000 0.000000 0.000000 0.500000 0.500000
-6.500000 -4.600000 -0.050000 -1.000000 0.000000 0.000000 1.000000 0.500000
-6.500000 -4.600000 0.180000 -1.000000 0.000000 0.000000 1.000000 0.750000
-6.500000 5.600000 0.180000 -1.000000 0.000000 0.000000 0.500000 0.750000
6.500000 -4.600000 -0.050000 1.000000 0.000000 0.000000 0.500000 0.500000
6.500000 5.600000 -0.050000 1.000000 0.000000 0.000000 1.000000 0.500000
6.500000 5.600000 0.180000 1.000000 0.000000 0.000000 1.000000 0.750000
6.500000 -4.600000 0.180000 1.000000 0.000000 0.000000 0.500000 0.750000
-6.500000 -4.600000 0.180000 0.000000 0.000000 1.000000 0.500000 0.750000
6.500000 -4.600000 0.180000 0.000000 0.000000 1.000000 1.000000 0.750000
6.500000 5.600000 0.180000 0.000000 0.000000 1.000000 1.000000 1.000000
-6.500000 5.600000 0.180000 0.000000 0.000000 1.000000 0.500000 1.000000
-6.500000 5.600000 -0.050000 0.000000 0.000000 -1.000000 0.500000 0.500000
6.500000 5.600000 -0.050000 0.000000 0.000000 -1.000000 1.000000 0.500000
6.500000 -4.600000 -0.050000 0.000000 0.000000 -1.000000 1.000000 0.750000
-6.500000 -4.600000 -0.050000 0.000000 0.000000 -1.000000 0.500000 0.750000
4 0 1 2 3
4 4 5 6 7
4 8 9 10 11
4 12 13 14 15
4 16 17 18 19
4 20 21 22 23
4 24 25 26 27
4 28 29 30 31
4 32 33 34 35
4 36 37 38 39
4 40 41 42 43
4 44 45 46 47
4 48 49 50 51
4 52 53 54 55
4 56 57 58 59
4 60 61 62 63
4 64 65 66 67
4 68 69 70 71
4 72 73 74 75
4 76 77 78 79
4 80 81 82 83
4 84 85 86 87
4 88 89 90 91
4 92 93 94 95
4 96 97 98 99
4 100 101 102 103
4 104 105 106 107
4 108 109 110 111
4 112 113 114 115
4 116 117 118 119
