ply
format ascii 1.0
comment TextureFile factory_building_04_texture.png
comment UV coordinates are stored as vertex properties s and t. Assign the sibling PNG as the diffuse/base-color texture if your viewer does not auto-load it.
element vertex 542
property float x
property float y
property float z
property float nx
property float ny
property float nz
property float s
property float t
element face 108
property list uchar int vertex_indices
end_header
-7.000000 -3.000000 0.000000 0.000000 -1.000000 0.000000 0.000000 0.000000
3.000000 -3.000000 0.000000 0.000000 -1.000000 0.000000 0.500000 0.000000
3.000000 -3.000000 3.000000 0.000000 -1.000000 0.000000 0.500000 0.500000
-7.000000 -3.000000 3.000000 0.000000 -1.000000 0.000000 0.000000 0.500000
3.000000 3.000000 0.000000 0.000000 1.000000 0.000000 0.000000 0.000000
-7.000000 3.000000 0.000000 0.000000 1.000000 0.000000 0.500000 0.000000
-7.000000 3.000000 3.000000 0.000000 1.000000 0.000000 0.500000 0.500000
3.000000 3.000000 3.000000 0.000000 1.000000 0.000000 0.000000 0.500000
-7.000000 3.000000 0.000000 -1.000000 0.000000 0.000000 0.000000 0.000000
-7.000000 -3.000000 0.000000 -1.000000 0.000000 0.000000 0.500000 0.000000
-7.000000 -3.000000 3.000000 -1.000000 0.000000 0.000000 0.500000 0.500000
-7.000000 3.000000 3.000000 -1.000000 0.000000 0.000000 0.000000 0.500000
3.000000 -3.000000 0.000000 1.000000 0.000000 0.000000 0.000000 0.000000
3.000000 3.000000 0.000000 1.000000 0.000000 0.000000 0.500000 0.000000
3.000000 3.000000 3.000000 1.000000 0.000000 0.000000 0.500000 0.500000
3.000000 -3.000000 3.000000 1.000000 0.000000 0.000000 0.000000 0.500000
-7.000000 -3.000000 3.000000 0.000000 0.000000 1.000000 0.500000 0.000000
3.000000 -3.000000 3.000000 0.000000 0.000000 1.000000 1.000000 0.000000
3.000000 3.000000 3.000000 0.000000 0.000000 1.000000 1.000000 0.500000
-7.000000 3.000000 3.000000 0.000000 0.000000 1.000000 0.500000 0.500000
-7.000000 3.000000 0.000000 0.000000 0.000000 -1.000000 0.500000 0.500000
3.000000 3.000000 0.000000 0.000000 0.000000 -1.000000 1.000000 0.500000
3.000000 -3.000000 0.000000 0.000000 0.000000 -1.000000 1.000000 0.750000
-7.000000 -3.000000 0.000000 0.000000 0.000000 -1.000000 0.500000 0.750000
3.000000 -2.200000 0.000000 0.000000 -1.000000 0.000000 0.000000 0.000000
6.500000 -2.200000 0.000000 0.000000 -1.000000 0.000000 0.500000 0.000000
6.500000 -2.200000 5.200000 0.000000 -1.000000 0.000000 0.500000 0.500000
3.000000 -2.200000 5.200000 0.000000 -1.000000 0.000000 0.000000 0.500000
6.500000 2.200000 0.000000 0.000000 1.000000 0.000000 0.000000 0.000000
3.000000 2.200000 0.000000 0.000000 1.000000 0.000000 0.500000 0.000000
3.000000 2.200000 5.200000 0.000000 1.000000 0.000000 0.500000 0.500000
6.500000 2.200000 5.200000 0.000000 1.000000 0.000000 0.000000 0.500000
3.000000 2.200000 0.000000 -1.000000 0.000000 0.000000 0.000000 0.000000
3.000000 -2.200000 0.000000 -1.000000 0.000000 0.000000 0.500000 0.000000
3.000000 -2.200000 5.200000 -1.000000 0.000000 0.000000 0.500000 0.500000
3.000000 2.200000 5.200000 -1.000000 0.000000 0.000000 0.000000 0.500000
6.500000 -2.200000 0.000000 1.000000 0.000000 0.000000 0.000000 0.000000
6.500000 2.200000 0.000000 1.000000 0.000000 0.000000 0.500000 0.000000
6.500000 2.200000 5.200000 1.000000 0.000000 0.000000 0.500000 0.500000
6.500000 -2.200000 5.200000 1.000000 0.000000 0.000000 0.000000 0.500000
3.000000 -2.200000 5.200000 0.000000 0.000000 1.000000 0.500000 0.000000
6.500000 -2.200000 5.200000 0.000000 0.000000 1.000000 1.000000 0.000000
6.500000 2.200000 5.200000 0.000000 0.000000 1.000000 1.000000 0.500000
3.000000 2.200000 5.200000 0.000000 0.000000 1.000000 0.500000 0.500000
3.000000 2.200000 0.000000 0.000000 0.000000 -1.000000 0.500000 0.500000
6.500000 2.200000 0.000000 0.000000 0.000000 -1.000000 1.000000 0.500000
6.500000 -2.200000 0.000000 0.000000 0.000000 -1.000000 1.000000 0.750000
3.000000 -2.200000 0.000000 0.000000 0.000000 -1.000000 0.500000 0.750000
-7.000000 -3.000000 3.000000 0.000000 -0.371391 0.928477 0.500000 0.000000
3.000000 -3.000000 3.000000 0.000000 -0.371391 0.928477 1.000000 0.000000
3.000000 0.000000 4.200000 0.000000 -0.371391 0.928477 1.000000 0.500000
-7.000000 0.000000 4.200000 0.000000 -0.371391 0.928477 0.500000 0.500000
3.000000 3.000000 3.000000 0.000000 0.371391 0.928477 0.500000 0.000000
-7.000000 3.000000 3.000000 0.000000 0.371391 0.928477 1.000000 0.000000
-7.000000 0.000000 4.200000 0.000000 0.371391 0.928477 1.000000 0.500000
3.000000 0.000000 4.200000 0.000000 0.371391 0.928477 0.500000 0.500000
-7.000000 -3.000000 3.000000 1.000000 0.000000 0.000000 0.250000 0.000000
-7.000000 3.000000 3.000000 1.000000 0.000000 0.000000 0.500000 0.500000
-7.000000 0.000000 4.200000 1.000000 0.000000 0.000000 0.000000 0.500000
3.000000 3.000000 3.000000 -1.000000 0.000000 -0.000000 0.250000 0.000000
3.000000 -3.000000 3.000000 -1.000000 0.000000 -0.000000 0.500000 0.500000
3.000000 0.000000 4.200000 -1.000000 0.000000 -0.000000 0.000000 0.500000
-7.500000 1.800000 0.000000 0.995185 0.098017 0.000000 0.000000 0.750000
-7.519215 1.995090 0.000000 0.995185 0.098017 0.000000 0.500000 0.750000
-7.519215 1.995090 4.800000 0.995185 0.098017 0.000000 0.500000 1.000000
-7.500000 1.800000 4.800000 0.995185 0.098017 0.000000 0.000000 1.000000
-7.519215 1.995090 0.000000 0.956940 0.290285 0.000000 0.000000 0.750000
-7.576120 2.182683 0.000000 0.956940 0.290285 0.000000 0.500000 0.750000
-7.576120 2.182683 4.800000 0.956940 0.290285 0.000000 0.500000 1.000000
-7.519215 1.995090 4.800000 0.956940 0.290285 0.000000 0.000000 1.000000
-7.576120 2.182683 0.000000 0.881921 0.471397 0.000000 0.000000 0.750000
-7.668530 2.355570 0.000000 0.881921 0.471397 0.000000 0.500000 0.750000
-7.668530 2.355570 4.800000 0.881921 0.471397 0.000000 0.500000 1.000000
-7.576120 2.182683 4.800000 0.881921 0.471397 0.000000 0.000000 1.000000
-7.668530 2.355570 0.000000 0.773010 0.634393 0.000000 0.000000 0.750000
-7.792893 2.507107 0.000000 0.773010 0.634393 0.000000 0.500000 0.750000
-7.792893 2.507107 4.800000 0.773010 0.634393 0.000000 0.500000 1.000000
-7.668530 2.355570 4.800000 0.773010 0.634393 0.000000 0.000000 1.000000
-7.792893 2.507107 0.000000 0.634393 0.773010 0.000000 0.000000 0.750000
-7.944430 2.631470 0.000000 0.634393 0.773010 0.000000 0.500000 0.750000
-7.944430 2.631470 4.800000 0.634393 0.773010 0.000000 0.500000 1.000000
-7.792893 2.507107 4.800000 0.634393 0.773010 0.000000 0.000000 1.000000
-7.944430 2.631470 0.000000 0.471397 0.881921 0.000000 0.000000 0.750000
-8.117317 2.723880 0.000000 0.471397 0.881921 0.000000 0.500000 0.750000
-8.117317 2.723880 4.800000 0.471397 0.881921 0.000000 0.500000 1.000000
-7.944430 2.631470 4.800000 0.471397 0.881921 0.000000 0.000000 1.000000
-8.117317 2.723880 0.000000 0.290285 0.956940 0.000000 0.000000 0.750000
-8.304910 2.780785 0.000000 0.290285 0.956940 0.000000 0.500000 0.750000
-8.304910 2.780785 4.800000 0.290285 0.956940 0.000000 0.500000 1.000000
-8.117317 2.723880 4.800000 0.290285 0.956940 0.000000 0.000000 1.000000
-8.304910 2.780785 0.000000 0.098017 0.995185 0.000000 0.000000 0.750000
-8.500000 2.800000 0.000000 0.098017 0.995185 0.000000 0.500000 0.750000
-8.500000 2.800000 4.800000 0.098017 0.995185 0.000000 0.500000 1.000000
-8.304910 2.780785 4.800000 0.098017 0.995185 0.000000 0.000000 1.000000
-8.500000 2.800000 0.000000 -0.098017 0.995185 0.000000 0.000000 0.750000
-8.695090 2.780785 0.000000 -0.098017 0.995185 0.000000 0.500000 0.750000
-8.695090 2.780785 4.800000 -0.098017 0.995185 0.000000 0.500000 1.000000
-8.500000 2.800000 4.800000 -0.098017 0.995185 0.000000 0.000000 1.000000
-8.695090 2.780785 0.000000 -0.290285 0.956940 0.000000 0.000000 0.750000
-8.882683 2.723880 0.000000 -0.290285 0.956940 0.000000 0.500000 0.750000
-8.882683 2.723880 4.800000 -0.290285 0.956940 0.000000 0.500000 1.000000
-8.695090 2.780785 4.800000 -0.290285 0.956940 0.000000 0.000000 1.000000
-8.882683 2.723880 0.000000 -0.471397 0.881921 0.000000 0.000000 0.750000
-9.055570 2.631470 0.000000 -0.471397 0.881921 0.000000 0.500000 0.750000
-9.055570 2.631470 4.800000 -0.471397 0.881921 0.000000 0.500000 1.000000
-8.882683 2.723880 4.800000 -0.471397 0.881921 0.000000 0.000000 1.000000
-9.055570 2.631470 0.000000 -0.634393 0.773010 0.000000 0.000000 0.750000
-9.207107 2.507107 0.000000 -0.634393 0.773010 0.000000 0.500000 0.750000
-9.207107 2.507107 4.800000 -0.634393 0.773010 0.000000 0.500000 1.000000
-9.055570 2.631470 4.800000 -0.634393 0.773010 0.000000 0.000000 1.000000
-9.207107 2.507107 0.000000 -0.773010 0.634393 0.000000 0.000000 0.750000
-9.331470 2.355570 0.000000 -0.773010 0.634393 0.000000 0.500000 0.750000
-9.331470 2.355570 4.800000 -0.773010 0.634393 0.000000 0.500000 1.000000
-9.207107 2.507107 4.800000 -0.773010 0.634393 0.000000 0.000000 1.000000
-9.331470 2.355570 0.000000 -0.881921 0.471397 0.000000 0.000000 0.750000
-9.423880 2.182683 0.000000 -0.881921 0.471397 0.000000 0.500000 0.750000
-9.423880 2.182683 4.800000 -0.881921 0.471397 0.000000 0.500000 1.000000
-9.331470 2.355570 4.800000 -0.881921 0.471397 0.000000 0.000000 1.000000
-9.423880 2.182683 0.000000 -0.956940 0.290285 0.000000 0.000000 0.750000
-9.480785 1.995090 0.000000 -0.956940 0.290285 0.000000 0.500000 0.750000
-9.480785 1.995090 4.800000 -0.956940 0.290285 0.000000 0.500000 1.000000
-9.423880 2.182683 4.800000 -0.956940 0.290285 0.000000 0.000000 1.000000
-9.480785 1.995090 0.000000 -0.995185 0.098017 0.000000 0.000000 0.750000
-9.500000 1.800000 0.000000 -0.995185 0.098017 0.000000 0.500000 0.750000
-9.500000 1.800000 4.800000 -0.995185 0.098017 0.000000 0.500000 1.000000
-9.480785 1.995090 4.800000 -0.995185 0.098017 0.000000 0.000000 1.000000
-9.500000 1.800000 0.000000 -0.995185 -0.098017 0.000000 0.000000 0.750000
-9.480785 1.604910 0.000000 -0.995185 -0.098017 0.000000 0.500000 0.750000
-9.480785 1.604910 4.800000 -0.995185 -0.098017 0.000000 0.500000 1.000000
-9.500000 1.800000 4.800000 -0.995185 -0.098017 0.000000 0.000000 1.000000
-9.480785 1.604910 0.000000 -0.956940 -0.290285 0.000000 0.000000 0.750000
-9.423880 1.417317 0.000000 -0.956940 -0.290285 0.000000 0.500000 0.750000
-9.423880 1.417317 4.800000 -0.956940 -0.290285 0.000000 0.500000 1.000000
-9.480785 1.604910 4.800000 -0.956940 -0.290285 0.000000 0.000000 1.000000
-9.423880 1.417317 0.000000 -0.881921 -0.471397 0.000000 0.000000 0.750000
-9.331470 1.244430 0.000000 -0.881921 -0.471397 0.000000 0.500000 0.750000
-9.331470 1.244430 4.800000 -0.881921 -0.471397 0.000000 0.500000 1.000000
-9.423880 1.417317 4.800000 -0.881921 -0.471397 0.000000 0.000000 1.000000
-9.331470 1.244430 0.000000 -0.773010 -0.634393 0.000000 0.000000 0.750000
-9.207107 1.092893 0.000000 -0.773010 -0.634393 0.000000 0.500000 0.750000
-9.207107 1.092893 4.800000 -0.773010 -0.634393 0.000000 0.500000 1.000000
-9.331470 1.244430 4.800000 -0.773010 -0.634393 0.000000 0.000000 1.000000
-9.207107 1.092893 0.000000 -0.634393 -0.773010 0.000000 0.000000 0.750000
-9.055570 0.968530 0.000000 -0.634393 -0.773010 0.000000 0.500000 0.750000
-9.055570 0.968530 4.800000 -0.634393 -0.773010 0.000000 0.500000 1.000000
-9.207107 1.092893 4.800000 -0.634393 -0.773010 0.000000 0.000000 1.000000
-9.055570 0.968530 0.000000 -0.471397 -0.881921 0.000000 0.000000 0.750000
-8.882683 0.876120 0.000000 -0.471397 -0.881921 0.000000 0.500000 0.750000
-8.882683 0.876120 4.800000 -0.471397 -0.881921 0.000000 0.500000 1.000000
-9.055570 0.968530 4.800000 -0.471397 -0.881921 0.000000 0.000000 1.000000
-8.882683 0.876120 0.000000 -0.290285 -0.956940 0.000000 0.000000 0.750000
-8.695090 0.819215 0.000000 -0.290285 -0.956940 0.000000 0.500000 0.750000
-8.695090 0.819215 4.800000 -0.290285 -0.956940 0.000000 0.500000 1.000000
-8.882683 0.876120 4.800000 -0.290285 -0.956940 0.000000 0.000000 1.000000
-8.695090 0.819215 0.000000 -0.098017 -0.995185 0.000000 0.000000 0.750000
-8.500000 0.800000 0.000000 -0.098017 -0.995185 0.000000 0.500000 0.750000
-8.500000 0.800000 4.800000 -0.098017 -0.995185 0.000000 0.500000 1.000000
-8.695090 0.819215 4.800000 -0.098017 -0.995185 0.000000 0.000000 1.000000
-8.500000 0.800000 0.000000 0.098017 -0.995185 0.000000 0.000000 0.750000
-8.304910 0.819215 0.000000 0.098017 -0.995185 0.000000 0.500000 0.750000
-8.304910 0.819215 4.800000 0.098017 -0.995185 0.000000 0.500000 1.000000
-8.500000 0.800000 4.800000 0.098017 -0.995185 0.000000 0.000000 1.000000
-8.304910 0.819215 0.000000 0.290285 -0.956940 0.000000 0.000000 0.750000
-8.117317 0.876120 0.000000 0.290285 -0.956940 0.000000 0.500000 0.750000
-8.117317 0.876120 4.800000 0.290285 -0.956940 0.000000 0.500000 1.000000
-8.304910 0.819215 4.800000 0.290285 -0.956940 0.000000 0.000000 1.000000
-8.117317 0.876120 0.000000 0.471397 -0.881921 0.000000 0.000000 0.750000
-7.944430 0.968530 0.000000 0.471397 -0.881921 0.000000 0.500000 0.750000
-7.944430 0.968530 4.800000 0.471397 -0.881921 0.000000 0.500000 1.000000
-8.117317 0.876120 4.800000 0.471397 -0.881921 0.000000 0.000000 1.000000
-7.944430 0.968530 0.000000 0.634393 -0.773010 0.000000 0.000000 0.750000
-7.792893 1.092893 0.000000 0.634393 -0.773010 0.000000 0.500000 0.750000
-7.792893 1.092893 4.800000 0.634393 -0.773010 0.000000 0.500000 1.000000
-7.944430 0.968530 4.800000 0.634393 -0.773010 0.000000 0.000000 1.000000
-7.792893 1.092893 0.000000 0.773010 -0.634393 0.000000 0.000000 0.750000
-7.668530 1.244430 0.000000 0.773010 -0.634393 0.000000 0.500000 0.750000
-7.668530 1.244430 4.800000 0.773010 -0.634393 0.000000 0.500000 1.000000
-7.792893 1.092893 4.800000 0.773010 -0.634393 0.000000 0.000000 1.000000
-7.668530 1.244430 0.000000 0.881921 -0.471397 0.000000 0.000000 0.750000
-7.576120 1.417317 0.000000 0.881921 -0.471397 0.000000 0.500000 0.750000
-7.576120 1.417317 4.800000 0.881921 -0.471397 0.000000 0.500000 1.000000
-7.668530 1.244430 4.800000 0.881921 -0.471397 0.000000 0.000000 1.000000
-7.576120 1.417317 0.000000 0.956940 -0.290285 0.000000 0.000000 0.750000
-7.519215 1.604910 0.000000 0.956940 -0.290285 0.000000 0.500000 0.750000
-7.519215 1.604910 4.800000 0.956940 -0.290285 0.000000 0.500000 1.000000
-7.576120 1.417317 4.800000 0.956940 -0.290285 0.000000 0.000000 1.000000
-7.519215 1.604910 0.000000 0.995185 -0.098017 0.000000 0.000000 0.750000
-7.500000 1.800000 0.000000 0.995185 -0.098017 0.000000 0.500000 0.750000
-7.500000 1.800000 4.800000 0.995185 -0.098017 0.000000 0.500000 1.000000
-7.519215 1.604910 4.800000 0.995185 -0.098017 0.000000 0.000000 1.000000
-7.500000 1.800000 4.800000 0.000000 0.000000 1.000000 0.500000 0.000000
-7.519215 1.995090 4.800000 0.000000 0.000000 1.000000 0.500000 0.000000
-7.576120 2.182683 4.800000 0.000000 0.000000 1.000000 0.500000 0.000000
-7.668530 2.355570 4.800000 0.000000 0.000000 1.000000 0.500000 0.000000
-7.792893 2.507107 4.800000 0.000000 0.000000 1.000000 0.500000 0.000000
-7.944430 2.631470 4.800000 0.000000 0.000000 1.000000 0.500000 0.000000
-8.117317 2.723880 4.800000 0.000000 0.000000 1.000000 0.500000 0.000000
-8.304910 2.780785 4.800000 0.000000 0.000000 1.000000 0.500000 0.000000
-8.500000 2.800000 4.800000 0.000000 0.000000 1.000000 0.500000 0.000000
-8.695090 2.780785 4.800000 0.000000 0.000000 1.000000 0.500000 0.000000
-8.882683 2.723880 4.800000 0.000000 0.000000 1.000000 0.500000 0.000000
-9.055570 2.631470 4.800000 0.000000 0.000000 1.000000 0.500000 0.000000
-9.207107 2.507107 4.800000 0.000000 0.000000 1.000000 0.500000 0.000000
-9.331470 2.355570 4.800000 0.000000 0.000000 1.000000 0.500000 0.000000
-9.423880 2.182683 4.800000 0.000000 0.000000 1.000000 0.500000 0.000000
-9.480785 1.995090 4.800000 0.000000 0.000000 1.000000 0.500000 0.000000
-9.500000 1.800000 4.800000 0.000000 0.000000 1.000000 0.500000 0.000000
-9.480785 1.604910 4.800000 0.000000 0.000000 1.000000 0.500000 0.000000
-9.423880 1.417317 4.800000 0.000000 0.000000 1.000000 0.500000 0.000000
-9.331470 1.244430 4.800000 0.000000 0.000000 1.000000 0.500000 0.000000
-9.207107 1.092893 4.800000 0.000000 0.000000 1.000000 0.500000 0.000000
-9.055570 0.968530 4.800000 0.000000 0.000000 1.000000 0.500000 0.000000
-8.882683 0.876120 4.800000 0.000000 0.000000 1.000000 0.500000 0.000000
-8.695090 0.819215 4.800000 0.000000 0.000000 1.000000 0.500000 0.000000
-8.500000 0.800000 4.800000 0.000000 0.000000 1.000000 0.500000 0.000000
-8.304910 0.819215 4.800000 0.000000 0.000000 1.000000 0.500000 0.000000
-8.117317 0.876120 4.800000 0.000000 0.000000 1.000000 0.500000 0.000000
-7.944430 0.968530 4.800000 0.000000 0.000000 1.000000 0.500000 0.000000
-7.792893 1.092893 4.800000 0.000000 0.000000 1.000000 0.500000 0.000000
-7.668530 1.244430 4.800000 0.000000 0.000000 1.000000 0.500000 0.000000
-7.576120 1.417317 4.800000 0.000000 0.000000 1.000000 0.500000 0.000000
-7.519215 1.604910 4.800000 0.000000 0.000000 1.000000 0.500000 0.000000
-7.519215 1.604910 0.000000 0.000000 0.000000 -1.000000 0.500000 0.500000
-7.576120 1.417317 0.000000 0.000000 0.000000 -1.000000 0.500000 0.500000
-7.668530 1.244430 0.000000 0.000000 0.000000 -1.000000 0.500000 0.500000
-7.792893 1.092893 0.000000 0.000000 0.000000 -1.000000 0.500000 0.500000
-7.944430 0.968530 0.000000 0.000000 0.000000 -1.000000 0.500000 0.500000
-8.117317 0.876120 0.000000 0.000000 0.000000 -1.000000 0.500000 0.500000
-8.304910 0.819215 0.000000 0.000000 0.000000 -1.000000 0.500000 0.500000
-8.500000 0.800000 0.000000 0.000000 0.000000 -1.000000 0.500000 0.500000
-8.695090 0.819215 0.000000 0.000000 0.000000 -1.000000 0.500000 0.500000
-8.882683 0.876120 0.000000 0.000000 0.000000 -1.000000 0.500000 0.500000
-9.055570 0.968530 0.000000 0.000000 0.000000 -1.000000 0.500000 0.500000
-9.207107 1.092893 0.000000 0.000000 0.000000 -1.000000 0.500000 0.500000
-9.331470 1.244430 0.000000 0.000000 0.000000 -1.000000 0.500000 0.500000
-9.423880 1.417317 0.000000 0.000000 0.000000 -1.000000 0.500000 0.500000
-9.480785 1.604910 0.000000 0.000000 0.000000 -1.000000 0.500000 0.500000
-9.500000 1.800000 0.000000 0.000000 0.000000 -1.000000 0.500000 0.500000
-9.480785 1.995090 0.000000 0.000000 0.000000 -1.000000 0.500000 0.500000
-9.423880 2.182683 0.000000 0.000000 0.000000 -1.000000 0.500000 0.500000
-9.331470 2.355570 0.000000 0.000000 0.000000 -1.000000 0.500000 0.500000
-9.207107 2.507107 0.000000 0.000000 0.000000 -1.000000 0.500000 0.500000
-9.055570 2.631470 0.000000 0.000000 0.000000 -1.000000 0.500000 0.500000
-8.882683 2.723880 0.000000 0.000000 0.000000 -1.000000 0.500000 0.500000
-8.695090 2.780785 0.000000 0.000000 0.000000 -1.000000 0.500000 0.500000
-8.500000 2.800000 0.000000 0.000000 0.000000 -1.000000 0.500000 0.500000
-8.304910 2.780785 0.000000 0.000000 0.000000 -1.000000 0.500000 0.500000
-8.117317 2.723880 0.000000 0.000000 0.000000 -1.000000 0.500000 0.500000
-7.944430 2.631470 0.000000 0.000000 0.000000 -1.000000 0.500000 0.500000
-7.792893 2.507107 0.000000 0.000000 0.000000 -1.000000 0.500000 0.500000
-7.668530 2.355570 0.000000 0.000000 0.000000 -1.000000 0.500000 0.500000
-7.576120 2.182683 0.000000 0.000000 0.000000 -1.000000 0.500000 0.500000
-7.519215 1.995090 0.000000 0.000000 0.000000 -1.000000 0.500000 0.500000
-7.500000 1.800000 0.000000 0.000000 0.000000 -1.000000 0.500000 0.500000
-7.650000 -1.200000 0.000000 0.995185 0.098017 0.000000 0.000000 0.750000
-7.666333 -1.034173 0.000000 0.995185 0.098017 0.000000 0.500000 0.750000
-7.666333 -1.034173 4.000000 0.995185 0.098017 0.000000 0.500000 1.000000
-7.650000 -1.200000 4.000000 0.995185 0.098017 0.000000 0.000000 1.000000
-7.666333 -1.034173 0.000000 0.956940 0.290285 0.000000 0.000000 0.750000
-7.714702 -0.874719 0.000000 0.956940 0.290285 0.000000 0.500000 0.750000
-7.714702 -0.874719 4.000000 0.956940 0.290285 0.000000 0.500000 1.000000
-7.666333 -1.034173 4.000000 0.956940 0.290285 0.000000 0.000000 1.000000
-7.714702 -0.874719 0.000000 0.881921 0.471397 0.000000 0.000000 0.750000
-7.793251 -0.727765 0.000000 0.881921 0.471397 0.000000 0.500000 0.750000
-7.793251 -0.727765 4.000000 0.881921 0.471397 0.000000 0.500000 1.000000
-7.714702 -0.874719 4.000000 0.881921 0.471397 0.000000 0.000000 1.000000
-7.793251 -0.727765 0.000000 0.773010 0.634393 0.000000 0.000000 0.750000
-7.898959 -0.598959 0.000000 0.773010 0.634393 0.000000 0.500000 0.750000
-7.898959 -0.598959 4.000000 0.773010 0.634393 0.000000 0.500000 1.000000
-7.793251 -0.727765 4.000000 0.773010 0.634393 0.000000 0.000000 1.000000
-7.898959 -0.598959 0.000000 0.634393 0.773010 0.000000 0.000000 0.750000
-8.027765 -0.493251 0.000000 0.634393 0.773010 0.000000 0.500000 0.750000
-8.027765 -0.493251 4.000000 0.634393 0.773010 0.000000 0.500000 1.000000
-7.898959 -0.598959 4.000000 0.634393 0.773010 0.000000 0.000000 1.000000
-8.027765 -0.493251 0.000000 0.471397 0.881921 0.000000 0.000000 0.750000
-8.174719 -0.414702 0.000000 0.471397 0.881921 0.000000 0.500000 0.750000
-8.174719 -0.414702 4.000000 0.471397 0.881921 0.000000 0.500000 1.000000
-8.027765 -0.493251 4.000000 0.471397 0.881921 0.000000 0.000000 1.000000
-8.174719 -0.414702 0.000000 0.290285 0.956940 0.000000 0.000000 0.750000
-8.334173 -0.366333 0.000000 0.290285 0.956940 0.000000 0.500000 0.750000
-8.334173 -0.366333 4.000000 0.290285 0.956940 0.000000 0.500000 1.000000
-8.174719 -0.414702 4.000000 0.290285 0.956940 0.000000 0.000000 1.000000
-8.334173 -0.366333 0.000000 0.098017 0.995185 0.000000 0.000000 0.750000
-8.500000 -0.350000 0.000000 0.098017 0.995185 0.000000 0.500000 0.750000
-8.500000 -0.350000 4.000000 0.098017 0.995185 0.000000 0.500000 1.000000
-8.334173 -0.366333 4.000000 0.098017 0.995185 0.000000 0.000000 1.000000
-8.500000 -0.350000 0.000000 -0.098017 0.995185 0.000000 0.000000 0.750000
-8.665827 -0.366333 0.000000 -0.098017 0.995185 0.000000 0.500000 0.750000
-8.665827 -0.366333 4.000000 -0.098017 0.995185 0.000000 0.500000 1.000000
-8.500000 -0.350000 4.000000 -0.098017 0.995185 0.000000 0.000000 1.000000
-8.665827 -0.366333 0.000000 -0.290285 0.956940 0.000000 0.000000 0.750000
-8.825281 -0.414702 0.000000 -0.290285 0.956940 0.000000 0.500000 0.750000
-8.825281 -0.414702 4.000000 -0.290285 0.956940 0.000000 0.500000 1.000000
-8.665827 -0.366333 4.000000 -0.290285 0.956940 0.000000 0.000000 1.000000
-8.825281 -0.414702 0.000000 -0.471397 0.881921 0.000000 0.000000 0.750000
-8.972235 -0.493251 0.000000 -0.471397 0.881921 0.000000 0.500000 0.750000
-8.972235 -0.493251 4.000000 -0.471397 0.881921 0.000000 0.500000 1.000000
-8.825281 -0.414702 4.000000 -0.471397 0.881921 0.000000 0.000000 1.000000
-8.972235 -0.493251 0.000000 -0.634393 0.773010 0.000000 0.000000 0.750000
-9.101041 -0.598959 0.000000 -0.634393 0.773010 0.000000 0.500000 0.750000
-9.101041 -0.598959 4.000000 -0.634393 0.773010 0.000000 0.500000 1.000000
-8.972235 -0.493251 4.000000 -0.634393 0.773010 0.000000 0.000000 1.000000
-9.101041 -0.598959 0.000000 -0.773010 0.634393 0.000000 0.000000 0.750000
-9.206749 -0.727765 0.000000 -0.773010 0.634393 0.000000 0.500000 0.750000
-9.206749 -0.727765 4.000000 -0.773010 0.634393 0.000000 0.500000 1.000000
-9.101041 -0.598959 4.000000 -0.773010 0.634393 0.000000 0.000000 1.000000
-9.206749 -0.727765 0.000000 -0.881921 0.471397 0.000000 0.000000 0.750000
-9.285298 -0.874719 0.000000 -0.881921 0.471397 0.000000 0.500000 0.750000
-9.285298 -0.874719 4.000000 -0.881921 0.471397 0.000000 0.500000 1.000000
-9.206749 -0.727765 4.000000 -0.881921 0.471397 0.000000 0.000000 1.000000
-9.285298 -0.874719 0.000000 -0.956940 0.290285 0.000000 0.000000 0.750000
-9.333667 -1.034173 0.000000 -0.956940 0.290285 0.000000 0.500000 0.750000
-9.333667 -1.034173 4.000000 -0.956940 0.290285 0.000000 0.500000 1.000000
-9.285298 -0.874719 4.000000 -0.956940 0.290285 0.000000 0.000000 1.000000
-9.333667 -1.034173 0.000000 -0.995185 0.098017 0.000000 0.000000 0.750000
-9.350000 -1.200000 0.000000 -0.995185 0.098017 0.000000 0.500000 0.750000
-9.350000 -1.200000 4.000000 -0.995185 0.098017 0.000000 0.500000 1.000000
-9.333667 -1.034173 4.000000 -0.995185 0.098017 0.000000 0.000000 1.000000
-9.350000 -1.200000 0.000000 -0.995185 -0.098017 0.000000 0.000000 0.750000
-9.333667 -1.365827 0.000000 -0.995185 -0.098017 0.000000 0.500000 0.750000
-9.333667 -1.365827 4.000000 -0.995185 -0.098017 0.000000 0.500000 1.000000
-9.350000 -1.200000 4.000000 -0.995185 -0.098017 0.000000 0.000000 1.000000
-9.333667 -1.365827 0.000000 -0.956940 -0.290285 0.000000 0.000000 0.750000
-9.285298 -1.525281 0.000000 -0.956940 -0.290285 0.000000 0.500000 0.750000
-9.285298 -1.525281 4.000000 -0.956940 -0.290285 0.000000 0.500000 1.000000
-9.333667 -1.365827 4.000000 -0.956940 -0.290285 0.000000 0.000000 1.000000
-9.285298 -1.525281 0.000000 -0.881921 -0.471397 0.000000 0.000000 0.750000
-9.206749 -1.672235 0.000000 -0.881921 -0.471397 0.000000 0.500000 0.750000
-9.206749 -1.672235 4.000000 -0.881921 -0.471397 0.000000 0.500000 1.000000
-9.285298 -1.525281 4.000000 -0.881921 -0.471397 0.000000 0.000000 1.000000
-9.206749 -1.672235 0.000000 -0.773010 -0.634393 0.000000 0.000000 0.750000
-9.101041 -1.801041 0.000000 -0.773010 -0.634393 0.000000 0.500000 0.750000
-9.101041 -1.801041 4.000000 -0.773010 -0.634393 0.000000 0.500000 1.000000
-9.206749 -1.672235 4.000000 -0.773010 -0.634393 0.000000 0.000000 1.000000
-9.101041 -1.801041 0.000000 -0.634393 -0.773010 0.000000 0.000000 0.750000
-8.972235 -1.906749 0.000000 -0.634393 -0.773010 0.000000 0.500000 0.750000
-8.972235 -1.906749 4.000000 -0.634393 -0.773010 0.000000 0.500000 1.000000
-9.101041 -1.801041 4.000000 -0.634393 -0.773010 0.000000 0.000000 1.000000
-8.972235 -1.906749 0.000000 -0.471397 -0.881921 0.000000 0.000000 0.750000
-8.825281 -1.985298 0.000000 -0.471397 -0.881921 0.000000 0.500000 0.750000
-8.825281 -1.985298 4.000000 -0.471397 -0.881921 0.000000 0.500000 1.000000
-8.972235 -1.906749 4.000000 -0.471397 -0.881921 0.000000 0.000000 1.000000
-8.825281 -1.985298 0.000000 -0.290285 -0.956940 0.000000 0.000000 0.750000
-8.665827 -2.033667 0.000000 -0.290285 -0.956940 0.000000 0.500000 0.750000
-8.665827 -2.033667 4.000000 -0.290285 -0.956940 0.000000 0.500000 1.000000
-8.825281 -1.985298 4.000000 -0.290285 -0.956940 0.000000 0.000000 1.000000
-8.665827 -2.033667 0.000000 -0.098017 -0.995185 0.000000 0.000000 0.750000
-8.500000 -2.050000 0.000000 -0.098017 -0.995185 0.000000 0.500000 0.750000
-8.500000 -2.050000 4.000000 -0.098017 -0.995185 0.000000 0.500000 1.000000
-8.665827 -2.033667 4.000000 -0.098017 -0.995185 0.000000 0.000000 1.000000
-8.500000 -2.050000 0.000000 0.098017 -0.995185 0.000000 0.000000 0.750000
-8.334173 -2.033667 0.000000 0.098017 -0.995185 0.000000 0.500000 0.750000
-8.334173 -2.033667 4.000000 0.098017 -0.995185 0.000000 0.500000 1.000000
-8.500000 -2.050000 4.000000 0.098017 -0.995185 0.000000 0.000000 1.000000
-8.334173 -2.033667 0.000000 0.290285 -0.956940 0.000000 0.000000 0.750000
-8.174719 -1.985298 0.000000 0.290285 -0.956940 0.000000 0.500000 0.750000
-8.174719 -1.985298 4.000000 0.290285 -0.956940 0.000000 0.500000 1.000000
-8.334173 -2.033667 4.000000 0.290285 -0.956940 0.000000 0.000000 1.000000
-8.174719 -1.985298 0.000000 0.471397 -0.881921 0.000000 0.000000 0.750000
-8.027765 -1.906749 0.000000 0.471397 -0.881921 0.000000 0.500000 0.750000
-8.027765 -1.906749 4.000000 0.471397 -0.881921 0.000000 0.500000 1.000000
-8.174719 -1.985298 4.000000 0.471397 -0.881921 0.000000 0.000000 1.000000
-8.027765 -1.906749 0.000000 0.634393 -0.773010 0.000000 0.000000 0.750000
-7.898959 -1.801041 0.000000 0.634393 -0.773010 0.000000 0.500000 0.750000
-7.898959 -1.801041 4.000000 0.634393 -0.773010 0.000000 0.500000 1.000000
-8.027765 -1.906749 4.000000 0.634393 -0.773010 0.000000 0.000000 1.000000
-7.898959 -1.801041 0.000000 0.773010 -0.634393 0.000000 0.000000 0.750000
-7.793251 -1.672235 0.000000 0.773010 -0.634393 0.000000 0.500000 0.750000
-7.793251 -1.672235 4.000000 0.773010 -0.634393 0.000000 0.500000 1.000000
-7.898959 -1.801041 4.000000 0.773010 -0.634393 0.000000 0.000000 1.000000
-7.793251 -1.672235 0.000000 0.881921 -0.471397 0.000000 0.000000 0.750000
-7.714702 -1.525281 0.000000 0.881921 -0.471397 0.000000 0.500000 0.750000
-7.714702 -1.525281 4.000000 0.881921 -0.471397 0.000000 0.500000 1.000000
-7.793251 -1.672235 4.000000 0.881921 -0.471397 0.000000 0.000000 1.000000
-7.714702 -1.525281 0.000000 0.956940 -0.290285 0.000000 0.000000 0.750000
-7.666333 -1.365827 0.000000 0.956940 -0.290285 0.000000 0.500000 0.750000
-7.666333 -1.365827 4.000000 0.956940 -0.290285 0.000000 0.500000 1.000000
-7.714702 -1.525281 4.000000 0.956940 -0.290285 0.000000 0.000000 1.000000
-7.666333 -1.365827 0.000000 0.995185 -0.098017 0.000000 0.000000 0.750000
-7.650000 -1.200000 0.000000 0.995185 -0.098017 0.000000 0.500000 0.750000
-7.650000 -1.200000 4.000000 0.995185 -0.098017 0.000000 0.500000 1.000000
-7.666333 -1.365827 4.000000 0.995185 -0.098017 0.000000 0.000000 1.000000
-7.650000 -1.200000 4.000000 0.000000 0.000000 1.000000 0.500000 0.000000
-7.666333 -1.034173 4.000000 0.000000 0.000000 1.000000 0.500000 0.000000
-7.714702 -0.874719 4.000000 0.000000 0.000000 1.000000 0.500000 0.000000
-7.793251 -0.727765 4.000000 0.000000 0.000000 1.000000 0.500000 0.000000
-7.898959 -0.598959 4.000000 0.000000 0.000000 1.000000 0.500000 0.000000
-8.027765 -0.493251 4.000000 0.000000 0.000000 1.000000 0.500000 0.000000
-8.174719 -0.414702 4.000000 0.000000 0.000000 1.000000 0.500000 0.000000
-8.334173 -0.366333 4.000000 0.000000 0.000000 1.000000 0.500000 0.000000
-8.500000 -0.350000 4.000000 0.000000 0.000000 1.000000 0.500000 0.000000
-8.665827 -0.366333 4.000000 0.000000 0.000000 1.000000 0.500000 0.000000
-8.825281 -0.414702 4.000000 0.000000 0.000000 1.000000 0.500000 0.000000
-8.972235 -0.493251 4.000000 0.000000 0.000000 1.000000 0.500000 0.000000
-9.101041 -0.598959 4.000000 0.000000 0.000000 1.000000 0.500000 0.000000
-9.206749 -0.727765 4.000000 0.000000 0.000000 1.000000 0.500000 0.000000
-9.285298 -0.874719 4.000000 0.000000 0.000000 1.000000 0.500000 0.000000
-9.333667 -1.034173 4.000000 0.000000 0.000000 1.000000 0.500000 0.000000
-9.350000 -1.200000 4.000000 0.000000 0.000000 1.000000 0.500000 0.000000
-9.333667 -1.365827 4.000000 0.000000 0.000000 1.000000 0.500000 0.000000
-9.285298 -1.525281 4.000000 0.000000 0.000000 1.000000 0.500000 0.000000
-9.206749 -1.672235 4.000000 0.000000 0.000000 1.000000 0.500000 0.000000
-9.101041 -1.801041 4.000000 0.000000 0.000000 1.000000 0.500000 0.000000
-8.972235 -1.906749 4.000000 0.000000 0.000000 1.000000 0.500000 0.000000
-8.825281 -1.985298 4.000000 0.000000 0.000000 1.000000 0.500000 0.000000
-8.665827 -2.033667 4.000000 0.000000 0.000000 1.000000 0.500000 0.000000
-8.500000 -2.050000 4.000000 0.000000 0.000000 1.000000 0.500000 0.000000
-8.334173 -2.033667 4.000000 0.000000 0.000000 1.000000 0.500000 0.000000
-8.174719 -1.985298 4.000000 0.000000 0.000000 1.000000 0.500000 0.000000
-8.027765 -1.906749 4.000000 0.000000 0.000000 1.000000 0.500000 0.000000
-7.898959 -1.801041 4.000000 0.000000 0.000000 1.000000 0.500000 0.000000
-7.793251 -1.672235 4.000000 0.000000 0.000000 1.000000 0.500000 0.000000
-7.714702 -1.525281 4.000000 0.000000 0.000000 1.000000 0.500000 0.000000
-7.666333 -1.365827 4.000000 0.000000 0.000000 1.000000 0.500000 0.000000
-7.666333 -1.365827 0.000000 0.000000 0.000000 -1.000000 0.500000 0.500000
-7.714702 -1.525281 0.000000 0.000000 0.000000 -1.000000 0.500000 0.500000
-7.793251 -1.672235 0.000000 0.000000 0.000000 -1.000000 0.500000 0.500000
-7.898959 -1.801041 0.000000 0.000000 0.000000 -1.000000 0.500000 0.500000
-8.027765 -1.906749 0.000000 0.000000 0.000000 -1.000000 0.500000 0.500000
-8.174719 -1.985298 0.000000 0.000000 0.000000 -1.000000 0.500000 0.500000
-8.334173 -2.033667 0.000000 0.000000 0.000000 -1.000000 0.500000 0.500000
-8.500000 -2.050000 0.000000 0.000000 0.000000 -1.000000 0.500000 0.500000
-8.665827 -2.033667 0.000000 0.000000 0.000000 -1.000000 0.500000 0.500000
-8.825281 -1.985298 0.000000 0.000000 0.000000 -1.000000 0.500000 0.500000
-8.972235 -1.906749 0.000000 0.000000 0.000000 -1.000000 0.500000 0.500000
-9.101041 -1.801041 0.000000 0.000000 0.000000 -1.000000 0.500000 0.500000
-9.206749 -1.672235 0.000000 0.000000 0.000000 -1.000000 0.500000 0.500000
-9.285298 -1.525281 0.000000 0.000000 0.000000 -1.000000 0.500000 0.500000
-9.333667 -1.365827 0.000000 0.000000 0.000000 -1.000000 0.500000 0.500000
-9.350000 -1.200000 0.000000 0.000000 0.000000 -1.000000 0.500000 0.500000
-9.333667 -1.034173 0.000000 0.000000 0.000000 -1.000000 0.500000 0.500000
-9.285298 -0.874719 0.000000 0.000000 0.000000 -1.000000 0.500000 0.500000
-9.206749 -0.727765 0.000000 0.000000 0.000000 -1.000000 0.500000 0.500000
-9.101041 -0.598959 0.000000 0.000000 0.000000 -1.000000 0.500000 0.500000
-8.972235 -0.493251 0.000000 0.000000 0.000000 -1.000000 0.500000 0.500000
-8.825281 -0.414702 0.000000 0.000000 0.000000 -1.000000 0.500000 0.500000
-8.665827 -0.366333 0.000000 0.000000 0.000000 -1.000000 0.500000 0.500000
-8.500000 -0.350000 0.000000 0.000000 0.000000 -1.000000 0.500000 0.500000
-8.334173 -0.366333 0.000000 0.000000 0.000000 -1.000000 0.500000 0.500000
-8.174719 -0.414702 0.000000 0.000000 0.000000 -1.000000 0.500000 0.500000
-8.027765 -0.493251 0.000000 0.000000 0.000000 -1.000000 0.500000 0.500000
-7.898959 -0.598959 0.000000 0.000000 0.000000 -1.000000 0.500000 0.500000
-7.793251 -0.727765 0.000000 0.000000 0.000000 -1.000000 0.500000 0.500000
-7.714702 -0.874719 0.000000 0.000000 0.000000 -1.000000 0.500000 0.500000
-7.666333 -1.034173 0.000000 0.000000 0.000000 -1.000000 0.500000 0.500000
-7.650000 -1.200000 0.000000 0.000000 0.000000 -1.000000 0.500000 0.500000
-8.500000 1.350000 3.400000 0.000000 -1.000000 0.000000 0.000000 0.750000
5.200000 1.350000 3.400000 0.000000 -1.000000 0.000000 0.500000 0.750000
5.200000 1.350000 3.750000 0.000000 -1.000000 0.000000 0.500000 1.000000
-8.500000 1.350000 3.750000 0.000000 -1.000000 0.000000 0.000000 1.000000
5.200000 1.700000 3.400000 0.000000 1.000000 0.000000 0.000000 0.750000
-8.500000 1.700000 3.400000 0.000000 1.000000 0.000000 0.500000 0.750000
-8.500000 1.700000 3.750000 0.000000 1.000000 0.000000 0.500000 1.000000
5.200000 1.700000 3.750000 0.000000 1.000000 0.000000 0.000000 1.000000
-8.500000 1.700000 3.400000 -1.000000 0.000000 0.000000 0.000000 0.750000
-8.500000 1.350000 3.400000 -1.000000 0.000000 0.000000 0.500000 0.750000
-8.500000 1.350000 3.750000 -1.000000 0.000000 0.000000 0.500000 1.000000
-8.500000 1.700000 3.750000 -1.000000 0.000000 0.000000 0.000000 1.000000
5.200000 1.350000 3.400000 1.000000 0.000000 0.000000 0.000000 0.750000
5.200000 1.700000 3.400000 1.000000 0.000000 0.000000 0.500000 0.750000
5.200000 1.700000 3.750000 1.000000 0.000000 0.000000 0.500000 1.000000
5.200000 1.350000 3.750000 1.000000 0.000000 0.000000 0.000000 1.000000
-8.500000 1.350000 3.750000 0.000000 0.000000 1.000000 0.000000 0.750000
5.200000 1.350000 3.750000 0.000000 0.000000 1.000000 0.500000 0.750000
5.200000 1.700000 3.750000 0.000000 0.000000 1.000000 0.500000 1.000000
-8.500000 1.700000 3.750000 0.000000 0.000000 1.000000 0.000000 1.000000
-8.500000 1.700000 3.400000 0.000000 0.000000 -1.000000 0.500000 0.500000
5.200000 1.700000 3.400000 0.000000 0.000000 -1.000000 1.000000 0.500000
5.200000 1.350000 3.400000 0.000000 0.000000 -1.000000 1.000000 0.750000
-8.500000 1.350000 3.400000 0.000000 0.000000 -1.000000 0.500000 0.750000
-8.500000 -1.350000 2.900000 0.000000 -1.000000 0.000000 0.000000 0.750000
5.200000 -1.350000 2.900000 0.000000 -1.000000 0.000000 0.500000 0.750000
5.200000 -1.350000 3.200000 0.000000 -1.000000 0.000000 0.500000 1.000000
-8.500000 -1.350000 3.200000 0.000000 -1.000000 0.000000 0.000000 1.000000
5.200000 -1.000000 2.900000 0.000000 1.000000 0.000000 0.000000 0.750000
-8.500000 -1.000000 2.900000 0.000000 1.000000 0.000000 0.500000 0.750000
-8.500000 -1.000000 3.200000 0.000000 1.000000 0.000000 0.500000 1.000000
5.200000 -1.000000 3.200000 0.000000 1.000000 0.000000 0.000000 1.000000
-8.500000 -1.000000 2.900000 -1.000000 0.000000 0.000000 0.000000 0.750000
-8.500000 -1.350000 2.900000 -1.000000 0.000000 0.000000 0.500000 0.750000
-8.500000 -1.350000 3.200000 -1.000000 0.000000 0.000000 0.500000 1.000000
-8.500000 -1.000000 3.200000 -1.000000 0.000000 0.000000 0.000000 1.000000
5.200000 -1.350000 2.900000 1.000000 0.000000 0.000000 0.000000 0.750000
5.200000 -1.000000 2.900000 1.000000 0.000000 0.000000 0.500000 0.750000
5.200000 -1.000000 3.200000 1.000000 0.000000 0.000000 0.500000 1.000000
5.200000 -1.350000 3.200000 1.000000 0.000000 0.000000 0.000000 1.000000
-8.500000 -1.350000 3.200000 0.000000 0.000000 1.000000 0.000000 0.750000
5.200000 -1.350000 3.200000 0.000000 0.000000 1.000000 0.500000 0.750000
5.200000 -1.000000 3.200000 0.000000 0.000000 1.000000 0.500000 1.000000
-8.500000 -1.000000 3.200000 0.000000 0.000000 1.000000 0.000000 1.000000
-8.500000 -1.000000 2.900000 0.000000 0.000000 -1.000000 0.500000 0.500000
5.200000 -1.000000 2.900000 0.000000 0.000000 -1.000000 1.000000 0.500000
5.200000 -1.350000 2.900000 0.000000 0.000000 -1.000000 1.000000 0.750000
-8.500000 -1.350000 2.900000 0.000000 0.000000 -1.000000 0.500000 0.750000
-2.500000 -3.600000 0.000000 0.000000 -1.000000 0.000000 0.000000 0.500000
-1.200000 -3.600000 0.000000 0.000000 -1.000000 0.000000 0.250000 0.500000
-1.200000 -3.600000 2.400000 0.000000 -1.000000 0.000000 0.250000 0.750000
-2.500000 -3.600000 2.400000 0.000000 -1.000000 0.000000 0.000000 0.750000
-1.200000 -3.000000 0.000000 0.000000 1.000000 0.000000 0.000000 0.500000
-2.500000 -3.000000 0.000000 0.000000 1.000000 0.000000 0.250000 0.500000
-2.500000 -3.000000 2.400000 0.000000 1.000000 0.000000 0.250000 0.750000
-1.200000 -3.000000 2.400000 0.000000 1.000000 0.000000 0.000000 0.750000
-2.500000 -3.000000 0.000000 -1.000000 0.000000 0.000000 0.000000 0.500000
-2.500000 -3.600000 0.000000 -1.000000 0.000000 0.000000 0.250000 0.500000
-2.500000 -3.600000 2.400000 -1.000000 0.000000 0.000000 0.250000 0.750000
-2.500000 -3.000000 2.400000 -1.000000 0.000000 0.000000 0.000000 0.750000
-1.200000 -3.600000 0.000000 1.000000 0.000000 0.000000 0.000000 0.500000
-1.200000 -3.000000 0.000000 1.000000 0.000000 0.000000 0.250000 0.500000
-1.200000 -3.000000 2.400000 1.000000 0.000000 0.000000 0.250000 0.750000
-1.200000 -3.600000 2.400000 1.000000 0.000000 0.000000 0.000000 0.750000
-2.500000 -3.600000 2.400000 0.000000 0.000000 1.000000 0.500000 0.000000
-1.200000 -3.600000 2.400000 0.000000 0.000000 1.000000 1.000000 0.000000
-1.200000 -3.000000 2.400000 0.000000 0.000000 1.000000 1.000000 0.500000
-2.500000 -3.000000 2.400000 0.000000 0.000000 1.000000 0.500000 0.500000
-2.500000 -3.000000 0.000000 0.000000 0.000000 -1.000000 0.500000 0.500000
-1.200000 -3.000000 0.000000 0.000000 0.000000 -1.000000 1.000000 0.500000
-1.200000 -3.600000 0.000000 0.000000 0.000000 -1.000000 1.000000 0.750000
-2.500000 -3.600000 0.000000 0.000000 0.000000 -1.000000 0.500000 0.750000
-9.800000 -4.200000 -0.050000 0.000000 -1.000000 0.000000 0.500000 0.500000
7.000000 -4.200000 -0.050000 0.000000 -1.000000 0.000000 1.000000 0.500000
7.000000 -4.200000 0.180000 0.000000 -1.000000 0.000000 1.000000 0.750000
-9.800000 -4.200000 0.180000 0.000000 -1.000000 0.000000 0.500000 0.750000
7.000000 3.800000 -0.050000 0.000000 1.000000 0.000000 0.500000 0.500000
-9.800000 3.800000 -0.050000 0.000000 1.000000 0.000000 1.000000 0.500000
-9.800000 3.800000 0.180000 0.000000 1.000000 0.000000 1.000000 0.750000
7.000000 3.800000 0.180000 0.000000 1.000000 0.000000 0.500000 0.750000
-9.800000 3.800000 -0.050000 -1.000000 0.000000 0.000000 0.500000 0.500000
-9.800000 -4.200000 -0.050000 -1.000000 0.000000 0.000000 1.000000 0.500000
-9.800000 -4.200000 0.180000 -1.000000 0.000000 0.000000 1.000000 0.750000
-9.800000 3.800000 0.180000 -1.000000 0.000000 0.000000 0.500000 0.750000
7.000000 -4.200000 -0.050000 1.000000 0.000000 0.000000 0.500000 0.500000
7.000000 3.800000 -0.050000 1.000000 0.000000 0.000000 1.000000 0.500000
7.000000 3.800000 0.180000 1.000000 0.000000 0.000000 1.000000 0.750000
7.000000 -4.200000 0.180000 1.000000 0.000000 0.000000 0.500000 0.750000
-9.800000 -4.200000 0.180000 0.000000 0.000000 1.000000 0.500000 0.750000
7.000000 -4.200000 0.180000 0.000000 0.000000 1.000000 1.000000 0.750000
7.000000 3.800000 0.180000 0.000000 0.000000 1.000000 1.000000 1.000000
-9.800000 3.800000 0.180000 0.000000 0.000000 1.000000 0.500000 1.000000
-9.800000 3.800000 -0.050000 0.000000 0.000000 -1.000000 0.500000 0.500000
7.000000 3.800000 -0.050000 0.000000 0.000000 -1.000000 1.000000 0.500000
7.000000 -4.200000 -0.050000 0.000000 0.000000 -1.000000 1.000000 0.750000
-9.800000 -4.200000 -0.050000 0.000000 0.000000 -1.000000 0.500000 0.750000
4 0 1 2 3
4 4 5 6 7
4 8 9 10 11
4 12 13 14 15
4 16 17 18 19
4 20 21 22 23
4 24 25 26 27
4 28 29 30 31
4 32 33 34 35
4 36 37 38 39
4 40 41 42 43
4 44 45 46 47
4 48 49 50 51
4 52 53 54 55
3 56 57 58
3 59 60 61
4 62 63 64 65
4 66 67 68 69
4 70 71 72 73
4 74 75 76 77
4 78 79 80 81
4 82 83 84 85
4 86 87 88 89
4 90 91 92 93
4 94 95 96 97
4 98 99 100 101
4 102 103 104 105
4 106 107 108 109
4 110 111 112 113
4 114 115 116 117
4 118 119 120 121
4 122 123 124 125
4 126 127 128 129
4 130 131 132 133
4 134 135 136 137
4 138 139 140 141
4 142 143 144 145
4 146 147 148 149
4 150 151 152 153
4 154 155 156 157
4 158 159 160 161
4 162 163 164 165
4 166 167 168 169
4 170 171 172 173
4 174 175 176 177
4 178 179 180 181
4 182 183 184 185
4 186 187 188 189
32 190 191 192 193 194 195 196 197 198 199 200 201 202 203 204 205 206 207 208 209 210 211 212 213 214 215 216 217 218 219 220 221
32 222 223 224 225 226 227 228 229 230 231 232 233 234 235 236 237 238 239 240 241 242 243 244 245 246 247 248 249 250 251 252 253
4 254 255 256 257
4 258 259 260 261
4 262 263 264 265
4 266 267 268 269
4 270 271 272 273
4 274 275 276 277
4 278 279 280 281
4 282 283 284 285
4 286 287 288 289
4 290 291 292 293
4 294 295 296 297
4 298 299 300 301
4 302 303 304 305
4 306 307 308 309
4 310 311 312 313
4 314 315 316 317
4 318 319 320 321
4 322 323 324 325
4 326 327 328 329
4 330 331 332 333
4 334 335 336 337
4 338 339 340 341
4 342 343 344 345
4 346 347 348 349
4 350 351 352 353
4 354 355 356 357
4 358 359 360 361
4 362 363 364 365
4 366 367 368 369
4 370 371 372 373
4 374 375 376 377
4 378 379 380 381
32 382 383 384 385 386 387 388 389 390 391 392 393 394 395 396 397 398 399 400 401 402 403 404 405 406 407 408 409 410 411 412 413
32 414 415 416 417 418 419 420 421 422 423 424 425 426 427 428 429 430 431 432 433 434 435 436 437 438 439 440 441 442 443 444 445
4 446 447 448 449
4 450 451 452 453
4 454 455 456 457
4 458 459 460 461
4 462 463 464 465
4 466 467 468 469
4 470 471 472 473
4 474 475 476 477
4 478 479 480 481
4 482 483 484 485
4 486 487 488 489
4 490 491 492 493
4 494 495 496 497
4 498 499 500 501
4 502 503 504 505
4 506 507 508 509
4 510 511 512 513
4 514 515 516 517
4 518 519 520 521
4 522 523 524 525
4 526 527 528 529
4 530 531 532 533
4 534 535 536 537
4 538 539 540 541
