ply
format ascii 1.0
comment TextureFile factory_building_03_texture.png
comment UV coordinates are stored as vertex properties s and t. Assign the sibling PNG as the diffuse/base-color texture if your viewer does not auto-load it.
element vertex 372
property float x
property float y
property float z
property float nx
property float ny
property float nz
property float s
property float t
element face 82
property list uchar int vertex_indices
end_header
-9.000000 -4.000000 0.000000 0.000000 -1.000000 0.000000 0.000000 0.000000
9.000000 -4.000000 0.000000 0.000000 -1.000000 0.000000 0.500000 0.000000
9.000000 -4.000000 2.600000 0.000000 -1.000000 0.000000 0.500000 0.500000
-9.000000 -4.000000 2.600000 0.000000 -1.000000 0.000000 0.000000 0.500000
9.000000 4.000000 0.000000 0.000000 1.000000 0.000000 0.000000 0.000000
-9.000000 4.000000 0.000000 0.000000 1.000000 0.000000 0.500000 0.000000
-9.000000 4.000000 2.600000 0.000000 1.000000 0.000000 0.500000 0.500000
9.000000 4.000000 2.600000 0.000000 1.000000 0.000000 0.000000 0.500000
-9.000000 4.000000 0.000000 -1.000000 0.000000 0.000000 0.000000 0.000000
-9.000000 -4.000000 0.000000 -1.000000 0.000000 0.000000 0.500000 0.000000
-9.000000 -4.000000 2.600000 -1.000000 0.000000 0.000000 0.500000 0.500000
-9.000000 4.000000 2.600000 -1.000000 0.000000 0.000000 0.000000 0.500000
9.000000 -4.000000 0.000000 1.000000 0.000000 0.000000 0.000000 0.000000
9.000000 4.000000 0.000000 1.000000 0.000000 0.000000 0.500000 0.000000
9.000000 4.000000 2.600000 1.000000 0.000000 0.000000 0.500000 0.500000
9.000000 -4.000000 2.600000 1.000000 0.000000 0.000000 0.000000 0.500000
-9.000000 -4.000000 2.600000 0.000000 0.000000 1.000000 0.500000 0.000000
9.000000 -4.000000 2.600000 0.000000 0.000000 1.000000 1.000000 0.000000
9.000000 4.000000 2.600000 0.000000 0.000000 1.000000 1.000000 0.500000
-9.000000 4.000000 2.600000 0.000000 0.000000 1.000000 0.500000 0.500000
-9.000000 4.000000 0.000000 0.000000 0.000000 -1.000000 0.500000 0.500000
9.000000 4.000000 0.000000 0.000000 0.000000 -1.000000 1.000000 0.500000
9.000000 -4.000000 0.000000 0.000000 0.000000 -1.000000 1.000000 0.750000
-9.000000 -4.000000 0.000000 0.000000 0.000000 -1.000000 0.500000 0.750000
-9.000000 -4.000000 2.600000 0.000000 -0.196116 0.980581 0.500000 0.000000
-6.000000 -4.000000 2.600000 0.000000 -0.196116 0.980581 1.000000 0.000000
-6.750000 4.000000 4.200000 0.000000 -0.196116 0.980581 1.000000 0.500000
-8.600000 4.000000 3.000000 0.000000 -0.196116 0.980581 0.500000 0.500000
-8.600000 4.000000 3.000000 -0.000000 1.000000 0.000000 0.250000 0.500000
-6.750000 4.000000 4.200000 -0.000000 1.000000 0.000000 0.500000 0.500000
-6.000000 4.000000 2.600000 -0.000000 1.000000 0.000000 0.500000 0.750000
-9.000000 4.000000 2.600000 -0.000000 1.000000 0.000000 0.250000 0.750000
-9.000000 -4.000000 2.600000 -0.707107 0.000000 0.707107 0.250000 0.000000
-8.600000 4.000000 3.000000 -0.707107 0.000000 0.707107 0.500000 0.500000
-9.000000 4.000000 2.600000 -0.707107 0.000000 0.707107 0.000000 0.500000
-6.000000 -4.000000 2.600000 0.905459 -0.000000 0.424434 0.250000 0.000000
-6.000000 4.000000 2.600000 0.905459 -0.000000 0.424434 0.500000 0.500000
-6.750000 4.000000 4.200000 0.905459 -0.000000 0.424434 0.000000 0.500000
-6.000000 -4.000000 2.600000 0.000000 -0.196116 0.980581 0.500000 0.000000
-3.000000 -4.000000 2.600000 0.000000 -0.196116 0.980581 1.000000 0.000000
-3.750000 4.000000 4.200000 0.000000 -0.196116 0.980581 1.000000 0.500000
-5.600000 4.000000 3.000000 0.000000 -0.196116 0.980581 0.500000 0.500000
-5.600000 4.000000 3.000000 -0.000000 1.000000 0.000000 0.250000 0.500000
-3.750000 4.000000 4.200000 -0.000000 1.000000 0.000000 0.500000 0.500000
-3.000000 4.000000 2.600000 -0.000000 1.000000 0.000000 0.500000 0.750000
-6.000000 4.000000 2.600000 -0.000000 1.000000 0.000000 0.250000 0.750000
-6.000000 -4.000000 2.600000 -0.707107 0.000000 0.707107 0.250000 0.000000
-5.600000 4.000000 3.000000 -0.707107 0.000000 0.707107 0.500000 0.500000
-6.000000 4.000000 2.600000 -0.707107 0.000000 0.707107 0.000000 0.500000
-3.000000 -4.000000 2.600000 0.905459 -0.000000 0.424434 0.250000 0.000000
-3.000000 4.000000 2.600000 0.905459 -0.000000 0.424434 0.500000 0.500000
-3.750000 4.000000 4.200000 0.905459 -0.000000 0.424434 0.000000 0.500000
-3.000000 -4.000000 2.600000 0.000000 -0.196116 0.980581 0.500000 0.000000
0.000000 -4.000000 2.600000 0.000000 -0.196116 0.980581 1.000000 0.000000
-0.750000 4.000000 4.200000 0.000000 -0.196116 0.980581 1.000000 0.500000
-2.600000 4.000000 3.000000 0.000000 -0.196116 0.980581 0.500000 0.500000
-2.600000 4.000000 3.000000 -0.000000 1.000000 0.000000 0.250000 0.500000
-0.750000 4.000000 4.200000 -0.000000 1.000000 0.000000 0.500000 0.500000
0.000000 4.000000 2.600000 -0.000000 1.000000 0.000000 0.500000 0.750000
-3.000000 4.000000 2.600000 -0.000000 1.000000 0.000000 0.250000 0.750000
-3.000000 -4.000000 2.600000 -0.707107 0.000000 0.707107 0.250000 0.000000
-2.600000 4.000000 3.000000 -0.707107 0.000000 0.707107 0.500000 0.500000
-3.000000 4.000000 2.600000 -0.707107 0.000000 0.707107 0.000000 0.500000
0.000000 -4.000000 2.600000 0.905459 -0.000000 0.424434 0.250000 0.000000
0.000000 4.000000 2.600000 0.905459 -0.000000 0.424434 0.500000 0.500000
-0.750000 4.000000 4.200000 0.905459 -0.000000 0.424434 0.000000 0.500000
0.000000 -4.000000 2.600000 0.000000 -0.196116 0.980581 0.500000 0.000000
3.000000 -4.000000 2.600000 0.000000 -0.196116 0.980581 1.000000 0.000000
2.250000 4.000000 4.200000 0.000000 -0.196116 0.980581 1.000000 0.500000
0.400000 4.000000 3.000000 0.000000 -0.196116 0.980581 0.500000 0.500000
0.400000 4.000000 3.000000 -0.000000 1.000000 0.000000 0.250000 0.500000
2.250000 4.000000 4.200000 -0.000000 1.000000 0.000000 0.500000 0.500000
3.000000 4.000000 2.600000 -0.000000 1.000000 0.000000 0.500000 0.750000
0.000000 4.000000 2.600000 -0.000000 1.000000 0.000000 0.250000 0.750000
0.000000 -4.000000 2.600000 -0.707107 0.000000 0.707107 0.250000 0.000000
0.400000 4.000000 3.000000 -0.707107 0.000000 0.707107 0.500000 0.500000
0.000000 4.000000 2.600000 -0.707107 0.000000 0.707107 0.000000 0.500000
3.000000 -4.000000 2.600000 0.905459 -0.000000 0.424434 0.250000 0.000000
3.000000 4.000000 2.600000 0.905459 -0.000000 0.424434 0.500000 0.500000
2.250000 4.000000 4.200000 0.905459 -0.000000 0.424434 0.000000 0.500000
3.000000 -4.000000 2.600000 0.000000 -0.196116 0.980581 0.500000 0.000000
6.000000 -4.000000 2.600000 0.000000 -0.196116 0.980581 1.000000 0.000000
5.250000 4.000000 4.200000 0.000000 -0.196116 0.980581 1.000000 0.500000
3.400000 4.000000 3.000000 0.000000 -0.196116 0.980581 0.500000 0.500000
3.400000 4.000000 3.000000 -0.000000 1.000000 0.000000 0.250000 0.500000
5.250000 4.000000 4.200000 -0.000000 1.000000 0.000000 0.500000 0.500000
6.000000 4.000000 2.600000 -0.000000 1.000000 0.000000 0.500000 0.750000
3.000000 4.000000 2.600000 -0.000000 1.000000 0.000000 0.250000 0.750000
3.000000 -4.000000 2.600000 -0.707107 0.000000 0.707107 0.250000 0.000000
3.400000 4.000000 3.000000 -0.707107 0.000000 0.707107 0.500000 0.500000
3.000000 4.000000 2.600000 -0.707107 0.000000 0.707107 0.000000 0.500000
6.000000 -4.000000 2.600000 0.905459 -0.000000 0.424434 0.250000 0.000000
6.000000 4.000000 2.600000 0.905459 -0.000000 0.424434 0.500000 0.500000
5.250000 4.000000 4.200000 0.905459 -0.000000 0.424434 0.000000 0.500000
6.000000 -4.000000 2.600000 0.000000 -0.196116 0.980581 0.500000 0.000000
9.000000 -4.000000 2.600000 0.000000 -0.196116 0.980581 1.000000 0.000000
8.250000 4.000000 4.200000 0.000000 -0.196116 0.980581 1.000000 0.500000
6.400000 4.000000 3.000000 0.000000 -0.196116 0.980581 0.500000 0.500000
6.400000 4.000000 3.000000 -0.000000 1.000000 0.000000 0.250000 0.500000
8.250000 4.000000 4.200000 -0.000000 1.000000 0.000000 0.500000 0.500000
9.000000 4.000000 2.600000 -0.000000 1.000000 0.000000 0.500000 0.750000
6.000000 4.000000 2.600000 -0.000000 1.000000 0.000000 0.250000 0.750000
6.000000 -4.000000 2.600000 -0.707107 0.000000 0.707107 0.250000 0.000000
6.400000 4.000000 3.000000 -0.707107 0.000000 0.707107 0.500000 0.500000
6.000000 4.000000 2.600000 -0.707107 0.000000 0.707107 0.000000 0.500000
9.000000 -4.000000 2.600000 0.905459 -0.000000 0.424434 0.250000 0.000000
9.000000 4.000000 2.600000 0.905459 -0.000000 0.424434 0.500000 0.500000
8.250000 4.000000 4.200000 0.905459 -0.000000 0.424434 0.000000 0.500000
-6.820000 4.800000 0.000000 0.984808 0.173648 0.000000 0.000000 0.750000
-6.842917 4.929968 0.000000 0.984808 0.173648 0.000000 0.500000 0.750000
-6.842917 4.929968 6.500000 0.984808 0.173648 0.000000 0.500000 1.000000
-6.820000 4.800000 6.500000 0.984808 0.173648 0.000000 0.000000 1.000000
-6.842917 4.929968 0.000000 0.866025 0.500000 0.000000 0.000000 0.750000
-6.908903 5.044259 0.000000 0.866025 0.500000 0.000000 0.500000 0.750000
-6.908903 5.044259 6.500000 0.866025 0.500000 0.000000 0.500000 1.000000
-6.842917 4.929968 6.500000 0.866025 0.500000 0.000000 0.000000 1.000000
-6.908903 5.044259 0.000000 0.642788 0.766044 0.000000 0.000000 0.750000
-7.010000 5.129090 0.000000 0.642788 0.766044 0.000000 0.500000 0.750000
-7.010000 5.129090 6.500000 0.642788 0.766044 0.000000 0.500000 1.000000
-6.908903 5.044259 6.500000 0.642788 0.766044 0.000000 0.000000 1.000000
-7.010000 5.129090 0.000000 0.342020 0.939693 0.000000 0.000000 0.750000
-7.134014 5.174227 0.000000 0.342020 0.939693 0.000000 0.500000 0.750000
-7.134014 5.174227 6.500000 0.342020 0.939693 0.000000 0.500000 1.000000
-7.010000 5.129090 6.500000 0.342020 0.939693 0.000000 0.000000 1.000000
-7.134014 5.174227 0.000000 0.000000 1.000000 0.000000 0.000000 0.750000
-7.265986 5.174227 0.000000 0.000000 1.000000 0.000000 0.500000 0.750000
-7.265986 5.174227 6.500000 0.000000 1.000000 0.000000 0.500000 1.000000
-7.134014 5.174227 6.500000 0.000000 1.000000 0.000000 0.000000 1.000000
-7.265986 5.174227 0.000000 -0.342020 0.939693 0.000000 0.000000 0.750000
-7.390000 5.129090 0.000000 -0.342020 0.939693 0.000000 0.500000 0.750000
-7.390000 5.129090 6.500000 -0.342020 0.939693 0.000000 0.500000 1.000000
-7.265986 5.174227 6.500000 -0.342020 0.939693 0.000000 0.000000 1.000000
-7.390000 5.129090 0.000000 -0.642788 0.766044 0.000000 0.000000 0.750000
-7.491097 5.044259 0.000000 -0.642788 0.766044 0.000000 0.500000 0.750000
-7.491097 5.044259 6.500000 -0.642788 0.766044 0.000000 0.500000 1.000000
-7.390000 5.129090 6.500000 -0.642788 0.766044 0.000000 0.000000 1.000000
-7.491097 5.044259 0.000000 -0.866025 0.500000 0.000000 0.000000 0.750000
-7.557083 4.929968 0.000000 -0.866025 0.500000 0.000000 0.500000 0.750000
-7.557083 4.929968 6.500000 -0.866025 0.500000 0.000000 0.500000 1.000000
-7.491097 5.044259 6.500000 -0.866025 0.500000 0.000000 0.000000 1.000000
-7.557083 4.929968 0.000000 -0.984808 0.173648 0.000000 0.000000 0.750000
-7.580000 4.800000 0.000000 -0.984808 0.173648 0.000000 0.500000 0.750000
-7.580000 4.800000 6.500000 -0.984808 0.173648 0.000000 0.500000 1.000000
-7.557083 4.929968 6.500000 -0.984808 0.173648 0.000000 0.000000 1.000000
-7.580000 4.800000 0.000000 -0.984808 -0.173648 0.000000 0.000000 0.750000
-7.557083 4.670032 0.000000 -0.984808 -0.173648 0.000000 0.500000 0.750000
-7.557083 4.670032 6.500000 -0.984808 -0.173648 0.000000 0.500000 1.000000
-7.580000 4.800000 6.500000 -0.984808 -0.173648 0.000000 0.000000 1.000000
-7.557083 4.670032 0.000000 -0.866025 -0.500000 0.000000 0.000000 0.750000
-7.491097 4.555741 0.000000 -0.866025 -0.500000 0.000000 0.500000 0.750000
-7.491097 4.555741 6.500000 -0.866025 -0.500000 0.000000 0.500000 1.000000
-7.557083 4.670032 6.500000 -0.866025 -0.500000 0.000000 0.000000 1.000000
-7.491097 4.555741 0.000000 -0.642788 -0.766044 0.000000 0.000000 0.750000
-7.390000 4.470910 0.000000 -0.642788 -0.766044 0.000000 0.500000 0.750000
-7.390000 4.470910 6.500000 -0.642788 -0.766044 0.000000 0.500000 1.000000
-7.491097 4.555741 6.500000 -0.642788 -0.766044 0.000000 0.000000 1.000000
-7.390000 4.470910 0.000000 -0.342020 -0.939693 0.000000 0.000000 0.750000
-7.265986 4.425773 0.000000 -0.342020 -0.939693 0.000000 0.500000 0.750000
-7.265986 4.425773 6.500000 -0.342020 -0.939693 0.000000 0.500000 1.000000
-7.390000 4.470910 6.500000 -0.342020 -0.939693 0.000000 0.000000 1.000000
-7.265986 4.425773 0.000000 0.000000 -1.000000 0.000000 0.000000 0.750000
-7.134014 4.425773 0.000000 0.000000 -1.000000 0.000000 0.500000 0.750000
-7.134014 4.425773 6.500000 0.000000 -1.000000 0.000000 0.500000 1.000000
-7.265986 4.425773 6.500000 0.000000 -1.000000 0.000000 0.000000 1.000000
-7.134014 4.425773 0.000000 0.342020 -0.939693 0.000000 0.000000 0.750000
-7.010000 4.470910 0.000000 0.342020 -0.939693 0.000000 0.500000 0.750000
-7.010000 4.470910 6.500000 0.342020 -0.939693 0.000000 0.500000 1.000000
-7.134014 4.425773 6.500000 0.342020 -0.939693 0.000000 0.000000 1.000000
-7.010000 4.470910 0.000000 0.642788 -0.766044 0.000000 0.000000 0.750000
-6.908903 4.555741 0.000000 0.642788 -0.766044 0.000000 0.500000 0.750000
-6.908903 4.555741 6.500000 0.642788 -0.766044 0.000000 0.500000 1.000000
-7.010000 4.470910 6.500000 0.642788 -0.766044 0.000000 0.000000 1.000000
-6.908903 4.555741 0.000000 0.866025 -0.500000 0.000000 0.000000 0.750000
-6.842917 4.670032 0.000000 0.866025 -0.500000 0.000000 0.500000 0.750000
-6.842917 4.670032 6.500000 0.866025 -0.500000 0.000000 0.500000 1.000000
-6.908903 4.555741 6.500000 0.866025 -0.500000 0.000000 0.000000 1.000000
-6.842917 4.670032 0.000000 0.984808 -0.173648 0.000000 0.000000 0.750000
-6.820000 4.800000 0.000000 0.984808 -0.173648 0.000000 0.500000 0.750000
-6.820000 4.800000 6.500000 0.984808 -0.173648 0.000000 0.500000 1.000000
-6.842917 4.670032 6.500000 0.984808 -0.173648 0.000000 0.000000 1.000000
-6.820000 4.800000 6.500000 0.000000 0.000000 1.000000 0.500000 0.000000
-6.842917 4.929968 6.500000 0.000000 0.000000 1.000000 0.500000 0.000000
-6.908903 5.044259 6.500000 0.000000 0.000000 1.000000 0.500000 0.000000
-7.010000 5.129090 6.500000 0.000000 0.000000 1.000000 0.500000 0.000000
-7.134014 5.174227 6.500000 0.000000 0.000000 1.000000 0.500000 0.000000
-7.265986 5.174227 6.500000 0.000000 0.000000 1.000000 0.500000 0.000000
-7.390000 5.129090 6.500000 0.000000 0.000000 1.000000 0.500000 0.000000
-7.491097 5.044259 6.500000 0.000000 0.000000 1.000000 0.500000 0.000000
-7.557083 4.929968 6.500000 0.000000 0.000000 1.000000 0.500000 0.000000
-7.580000 4.800000 6.500000 0.000000 0.000000 1.000000 0.500000 0.000000
-7.557083 4.670032 6.500000 0.000000 0.000000 1.000000 0.500000 0.000000
-7.491097 4.555741 6.500000 0.000000 0.000000 1.000000 0.500000 0.000000
-7.390000 4.470910 6.500000 0.000000 0.000000 1.000000 0.500000 0.000000
-7.265986 4.425773 6.500000 0.000000 0.000000 1.000000 0.500000 0.000000
-7.134014 4.425773 6.500000 0.000000 0.000000 1.000000 0.500000 0.000000
-7.010000 4.470910 6.500000 0.000000 0.000000 1.000000 0.500000 0.000000
-6.908903 4.555741 6.500000 0.000000 0.000000 1.000000 0.500000 0.000000
-6.842917 4.670032 6.500000 0.000000 0.000000 1.000000 0.500000 0.000000
-6.842917 4.670032 0.000000 0.000000 0.000000 -1.000000 0.500000 0.500000
-6.908903 4.555741 0.000000 0.000000 0.000000 -1.000000 0.500000 0.500000
-7.010000 4.470910 0.000000 0.000000 0.000000 -1.000000 0.500000 0.500000
-7.134014 4.425773 0.000000 0.000000 0.000000 -1.000000 0.500000 0.500000
-7.265986 4.425773 0.000000 0.000000 0.000000 -1.000000 0.500000 0.500000
-7.390000 4.470910 0.000000 0.000000 0.000000 -1.000000 0.500000 0.500000
-7.491097 4.555741 0.000000 0.000000 0.000000 -1.000000 0.500000 0.500000
-7.557083 4.670032 0.000000 0.000000 0.000000 -1.000000 0.500000 0.500000
-7.580000 4.800000 0.000000 0.000000 0.000000 -1.000000 0.500000 0.500000
-7.557083 4.929968 0.000000 0.000000 0.000000 -1.000000 0.500000 0.500000
-7.491097 5.044259 0.000000 0.000000 0.000000 -1.000000 0.500000 0.500000
-7.390000 5.129090 0.000000 0.000000 0.000000 -1.000000 0.500000 0.500000
-7.265986 5.174227 0.000000 0.000000 0.000000 -1.000000 0.500000 0.500000
-7.134014 5.174227 0.000000 0.000000 0.000000 -1.000000 0.500000 0.500000
-7.010000 5.129090 0.000000 0.000000 0.000000 -1.000000 0.500000 0.500000
-6.908903 5.044259 0.000000 0.000000 0.000000 -1.000000 0.500000 0.500000
-6.842917 4.929968 0.000000 0.000000 0.000000 -1.000000 0.500000 0.500000
-6.820000 4.800000 0.000000 0.000000 0.000000 -1.000000 0.500000 0.500000
-5.950000 4.800000 0.000000 0.984808 0.173648 0.000000 0.000000 0.750000
-5.965077 4.885505 0.000000 0.984808 0.173648 0.000000 0.500000 0.750000
-5.965077 4.885505 5.200000 0.984808 0.173648 0.000000 0.500000 1.000000
-5.950000 4.800000 5.200000 0.984808 0.173648 0.000000 0.000000 1.000000
-5.965077 4.885505 0.000000 0.866025 0.500000 0.000000 0.000000 0.750000
-6.008489 4.960697 0.000000 0.866025 0.500000 0.000000 0.500000 0.750000
-6.008489 4.960697 5.200000 0.866025 0.500000 0.000000 0.500000 1.000000
-5.965077 4.885505 5.200000 0.866025 0.500000 0.000000 0.000000 1.000000
-6.008489 4.960697 0.000000 0.642788 0.766044 0.000000 0.000000 0.750000
-6.075000 5.016506 0.000000 0.642788 0.766044 0.000000 0.500000 0.750000
-6.075000 5.016506 5.200000 0.642788 0.766044 0.000000 0.500000 1.000000
-6.008489 4.960697 5.200000 0.642788 0.766044 0.000000 0.000000 1.000000
-6.075000 5.016506 0.000000 0.342020 0.939693 0.000000 0.000000 0.750000
-6.156588 5.046202 0.000000 0.342020 0.939693 0.000000 0.500000 0.750000
-6.156588 5.046202 5.200000 0.342020 0.939693 0.000000 0.500000 1.000000
-6.075000 5.016506 5.200000 0.342020 0.939693 0.000000 0.000000 1.000000
-6.156588 5.046202 0.000000 0.000000 1.000000 0.000000 0.000000 0.750000
-6.243412 5.046202 0.000000 0.000000 1.000000 0.000000 0.500000 0.750000
-6.243412 5.046202 5.200000 0.000000 1.000000 0.000000 0.500000 1.000000
-6.156588 5.046202 5.200000 0.000000 1.000000 0.000000 0.000000 1.000000
-6.243412 5.046202 0.000000 -0.342020 0.939693 0.000000 0.000000 0.750000
-6.325000 5.016506 0.000000 -0.342020 0.939693 0.000000 0.500000 0.750000
-6.325000 5.016506 5.200000 -0.342020 0.939693 0.000000 0.500000 1.000000
-6.243412 5.046202 5.200000 -0.342020 0.939693 0.000000 0.000000 1.000000
-6.325000 5.016506 0.000000 -0.642788 0.766044 0.000000 0.000000 0.750000
-6.391511 4.960697 0.000000 -0.642788 0.766044 0.000000 0.500000 0.750000
-6.391511 4.960697 5.200000 -0.642788 0.766044 0.000000 0.500000 1.000000
-6.325000 5.016506 5.200000 -0.642788 0.766044 0.000000 0.000000 1.000000
-6.391511 4.960697 0.000000 -0.866025 0.500000 0.000000 0.000000 0.750000
-6.434923 4.885505 0.000000 -0.866025 0.500000 0.000000 0.500000 0.750000
-6.434923 4.885505 5.200000 -0.866025 0.500000 0.000000 0.500000 1.000000
-6.391511 4.960697 5.200000 -0.866025 0.500000 0.000000 0.000000 1.000000
-6.434923 4.885505 0.000000 -0.984808 0.173648 0.000000 0.000000 0.750000
-6.450000 4.800000 0.000000 -0.984808 0.173648 0.000000 0.500000 0.750000
-6.450000 4.800000 5.200000 -0.984808 0.173648 0.000000 0.500000 1.000000
-6.434923 4.885505 5.200000 -0.984808 0.173648 0.000000 0.000000 1.000000
-6.450000 4.800000 0.000000 -0.984808 -0.173648 0.000000 0.000000 0.750000
-6.434923 4.714495 0.000000 -0.984808 -0.173648 0.000000 0.500000 0.750000
-6.434923 4.714495 5.200000 -0.984808 -0.173648 0.000000 0.500000 1.000000
-6.450000 4.800000 5.200000 -0.984808 -0.173648 0.000000 0.000000 1.000000
-6.434923 4.714495 0.000000 -0.866025 -0.500000 0.000000 0.000000 0.750000
-6.391511 4.639303 0.000000 -0.866025 -0.500000 0.000000 0.500000 0.750000
-6.391511 4.639303 5.200000 -0.866025 -0.500000 0.000000 0.500000 1.000000
-6.434923 4.714495 5.200000 -0.866025 -0.500000 0.000000 0.000000 1.000000
-6.391511 4.639303 0.000000 -0.642788 -0.766044 0.000000 0.000000 0.750000
-6.325000 4.583494 0.000000 -0.642788 -0.766044 0.000000 0.500000 0.750000
-6.325000 4.583494 5.200000 -0.642788 -0.766044 0.000000 0.500000 1.000000
-6.391511 4.639303 5.200000 -0.642788 -0.766044 0.000000 0.000000 1.000000
-6.325000 4.583494 0.000000 -0.342020 -0.939693 0.000000 0.000000 0.750000
-6.243412 4.553798 0.000000 -0.342020 -0.939693 0.000000 0.500000 0.750000
-6.243412 4.553798 5.200000 -0.342020 -0.939693 0.000000 0.500000 1.000000
-6.325000 4.583494 5.200000 -0.342020 -0.939693 0.000000 0.000000 1.000000
-6.243412 4.553798 0.000000 0.000000 -1.000000 0.000000 0.000000 0.750000
-6.156588 4.553798 0.000000 0.000000 -1.000000 0.000000 0.500000 0.750000
-6.156588 4.553798 5.200000 0.000000 -1.000000 0.000000 0.500000 1.000000
-6.243412 4.553798 5.200000 0.000000 -1.000000 0.000000 0.000000 1.000000
-6.156588 4.553798 0.000000 0.342020 -0.939693 0.000000 0.000000 0.750000
-6.075000 4.583494 0.000000 0.342020 -0.939693 0.000000 0.500000 0.750000
-6.075000 4.583494 5.200000 0.342020 -0.939693 0.000000 0.500000 1.000000
-6.156588 4.553798 5.200000 0.342020 -0.939693 0.000000 0.000000 1.000000
-6.075000 4.583494 0.000000 0.642788 -0.766044 0.000000 0.000000 0.750000
-6.008489 4.639303 0.000000 0.642788 -0.766044 0.000000 0.500000 0.750000
-6.008489 4.639303 5.200000 0.642788 -0.766044 0.000000 0.500000 1.000000
-6.075000 4.583494 5.200000 0.642788 -0.766044 0.000000 0.000000 1.000000
-6.008489 4.639303 0.000000 0.866025 -0.500000 0.000000 0.000000 0.750000
-5.965077 4.714495 0.000000 0.866025 -0.500000 0.000000 0.500000 0.750000
-5.965077 4.714495 5.200000 0.866025 -0.500000 0.000000 0.500000 1.000000
-6.008489 4.639303 5.200000 0.866025 -0.500000 0.000000 0.000000 1.000000
-5.965077 4.714495 0.000000 0.984808 -0.173648 0.000000 0.000000 0.750000
-5.950000 4.800000 0.000000 0.984808 -0.173648 0.000000 0.500000 0.750000
-5.950000 4.800000 5.200000 0.984808 -0.173648 0.000000 0.500000 1.000000
-5.965077 4.714495 5.200000 0.984808 -0.173648 0.000000 0.000000 1.000000
-5.950000 4.800000 5.200000 0.000000 0.000000 1.000000 0.500000 0.000000
-5.965077 4.885505 5.200000 0.000000 0.000000 1.000000 0.500000 0.000000
-6.008489 4.960697 5.200000 0.000000 0.000000 1.000000 0.500000 0.000000
-6.075000 5.016506 5.200000 0.000000 0.000000 1.000000 0.500000 0.000000
-6.156588 5.046202 5.200000 0.000000 0.000000 1.000000 0.500000 0.000000
-6.243412 5.046202 5.200000 0.000000 0.000000 1.000000 0.500000 0.000000
-6.325000 5.016506 5.200000 0.000000 0.000000 1.000000 0.500000 0.000000
-6.391511 4.960697 5.200000 0.000000 0.000000 1.000000 0.500000 0.000000
-6.434923 4.885505 5.200000 0.000000 0.000000 1.000000 0.500000 0.000000
-6.450000 4.800000 5.200000 0.000000 0.000000 1.000000 0.500000 0.000000
-6.434923 4.714495 5.200000 0.000000 0.000000 1.000000 0.500000 0.000000
-6.391511 4.639303 5.200000 0.000000 0.000000 1.000000 0.500000 0.000000
-6.325000 4.583494 5.200000 0.000000 0.000000 1.000000 0.500000 0.000000
-6.243412 4.553798 5.200000 0.000000 0.000000 1.000000 0.500000 0.000000
-6.156588 4.553798 5.200000 0.000000 0.000000 1.000000 0.500000 0.000000
-6.075000 4.583494 5.200000 0.000000 0.000000 1.000000 0.500000 0.000000
-6.008489 4.639303 5.200000 0.000000 0.000000 1.000000 0.500000 0.000000
-5.965077 4.714495 5.200000 0.000000 0.000000 1.000000 0.500000 0.000000
-5.965077 4.714495 0.000000 0.000000 0.000000 -1.000000 0.500000 0.500000
-6.008489 4.639303 0.000000 0.000000 0.000000 -1.000000 0.500000 0.500000
-6.075000 4.583494 0.000000 0.000000 0.000000 -1.000000 0.500000 0.500000
-6.156588 4.553798 0.000000 0.000000 0.000000 -1.000000 0.500000 0.500000
-6.243412 4.553798 0.000000 0.000000 0.000000 -1.000000 0.500000 0.500000
-6.325000 4.583494 0.000000 0.000000 0.000000 -1.000000 0.500000 0.500000
-6.391511 4.639303 0.000000 0.000000 0.000000 -1.000000 0.500000 0.500000
-6.434923 4.714495 0.000000 0.000000 0.000000 -1.000000 0.500000 0.500000
-6.450000 4.800000 0.000000 0.000000 0.000000 -1.000000 0.500000 0.500000
-6.434923 4.885505 0.000000 0.000000 0.000000 -1.000000 0.500000 0.500000
-6.391511 4.960697 0.000000 0.000000 0.000000 -1.000000 0.500000 0.500000
-6.325000 5.016506 0.000000 0.000000 0.000000 -1.000000 0.500000 0.500000
-6.243412 5.046202 0.000000 0.000000 0.000000 -1.000000 0.500000 0.500000
-6.156588 5.046202 0.000000 0.000000 0.000000 -1.000000 0.500000 0.500000
-6.075000 5.016506 0.000000 0.000000 0.000000 -1.000000 0.500000 0.500000
-6.008489 4.960697 0.000000 0.000000 0.000000 -1.000000 0.500000 0.500000
-5.965077 4.885505 0.000000 0.000000 0.000000 -1.000000 0.500000 0.500000
-5.950000 4.800000 0.000000 0.000000 0.000000 -1.000000 0.500000 0.500000
3.500000 -4.700000 0.000000 0.000000 -1.000000 0.000000 0.000000 0.500000
8.500000 -4.700000 0.000000 0.000000 -1.000000 0.000000 0.250000 0.500000
8.500000 -4.700000 1.600000 0.000000 -1.000000 0.000000 0.250000 0.750000
3.500000 -4.700000 1.600000 0.000000 -1.000000 0.000000 0.000000 0.750000
8.500000 -4.100000 0.000000 0.000000 1.000000 0.000000 0.000000 0.500000
3.500000 -4.100000 0.000000 0.000000 1.000000 0.000000 0.250000 0.500000
3.500000 -4.100000 1.600000 0.000000 1.000000 0.000000 0.250000 0.750000
8.500000 -4.100000 1.600000 0.000000 1.000000 0.000000 0.000000 0.750000
3.500000 -4.100000 0.000000 -1.000000 0.000000 0.000000 0.000000 0.500000
3.500000 -4.700000 0.000000 -1.000000 0.000000 0.000000 0.250000 0.500000
3.500000 -4.700000 1.600000 -1.000000 0.000000 0.000000 0.250000 0.750000
3.500000 -4.100000 1.600000 -1.000000 0.000000 0.000000 0.000000 0.750000
8.500000 -4.700000 0.000000 1.000000 0.000000 0.000000 0.000000 0.500000
8.500000 -4.100000 0.000000 1.000000 0.000000 0.000000 0.250000 0.500000
8.500000 -4.100000 1.600000 1.000000 0.000000 0.000000 0.250000 0.750000
8.500000 -4.700000 1.600000 1.000000 0.000000 0.000000 0.000000 0.750000
3.500000 -4.700000 1.600000 0.000000 0.000000 1.000000 0.500000 0.000000
8.500000 -4.700000 1.600000 0.000000 0.000000 1.000000 1.000000 0.000000
8.500000 -4.100000 1.600000 0.000000 0.000000 1.000000 1.000000 0.500000
3.500000 -4.100000 1.600000 0.000000 0.000000 1.000000 0.500000 0.500000
3.500000 -4.100000 0.000000 0.000000 0.000000 -1.000000 0.500000 0.500000
8.500000 -4.100000 0.000000 0.000000 0.000000 -1.000000 1.000000 0.500000
8.500000 -4.700000 0.000000 0.000000 0.000000 -1.000000 1.000000 0.750000
3.500000 -4.700000 0.000000 0.000000 0.000000 -1.000000 0.500000 0.750000
-9.500000 -5.000000 -0.050000 0.000000 -1.000000 0.000000 0.500000 0.500000
9.500000 -5.000000 -0.050000 0.000000 -1.000000 0.000000 1.000000 0.500000
9.500000 -5.000000 0.150000 0.000000 -1.000000 0.000000 1.000000 0.750000
-9.500000 -5.000000 0.150000 0.000000 -1.000000 0.000000 0.500000 0.750000
9.500000 5.400000 -0.050000 0.000000 1.000000 0.000000 0.500000 0.500000
-9.500000 5.400000 -0.050000 0.000000 1.000000 0.000000 1.000000 0.500000
-9.500000 5.400000 0.150000 0.000000 1.000000 0.000000 1.000000 0.750000
9.500000 5.400000 0.150000 0.000000 1.000000 0.000000 0.500000 0.750000
-9.500000 5.400000 -0.050000 -1.000000 0.000000 0.000000 0.500000 0.500000
-9.500000 -5.000000 -0.050000 -1.000000 0.000000 0.000000 1.000000 0.500000
-9.500000 -5.000000 0.150000 -1.000000 0.000000 0.000000 1.000000 0.750000
-9.500000 5.400000 0.150000 -1.000000 0.000000 0.000000 0.500000 0.750000
9.500000 -5.000000 -0.050000 1.000000 0.000000 0.000000 0.500000 0.500000
9.500000 5.400000 -0.050000 1.000000 0.000000 0.000000 1.000000 0.500000
9.500000 5.400000 0.150000 1.000000 0.000000 0.000000 1.000000 0.750000
9.500000 -5.000000 0.150000 1.000000 0.000000 0.000000 0.500000 0.750000
-9.500000 -5.000000 0.150000 0.000000 0.000000 1.000000 0.500000 0.750000
9.500000 -5.000000 0.150000 0.000000 0.000000 1.000000 1.000000 0.750000
9.500000 5.400000 0.150000 0.000000 0.000000 1.000000 1.000000 1.000000
-9.500000 5.400000 0.150000 0.000000 0.000000 1.000000 0.500000 1.000000
-9.500000 5.400000 -0.050000 0.000000 0.000000 -1.000000 0.500000 0.500000
9.500000 5.400000 -0.050000 0.000000 0.000000 -1.000000 1.000000 0.500000
9.500000 -5.000000 -0.050000 0.000000 0.000000 -1.000000 1.000000 0.750000
-9.500000 -5.000000 -0.050000 0.000000 0.000000 -1.000000 0.500000 0.750000
4 0 1 2 3
4 4 5 6 7
4 8 9 10 11
4 12 13 14 15
4 16 17 18 19
4 20 21 22 23
4 24 25 26 27
4 28 29 30 31
3 32 33 34
3 35 36 37
4 38 39 40 41
4 42 43 44 45
3 46 47 48
3 49 50 51
4 52 53 54 55
4 56 57 58 59
3 60 61 62
3 63 64 65
4 66 67 68 69
4 70 71 72 73
3 74 75 76
3 77 78 79
4 80 81 82 83
4 84 85 86 87
3 88 89 90
3 91 92 93
4 94 95 96 97
4 98 99 100 101
3 102 103 104
3 105 106 107
4 108 109 110 111
4 112 113 114 115
4 116 117 118 119
4 120 121 122 123
4 124 125 126 127
4 128 129 130 131
4 132 133 134 135
4 136 137 138 139
4 140 141 142 143
4 144 145 146 147
4 148 149 150 151
4 152 153 154 155
4 156 157 158 159
4 160 161 162 163
4 164 165 166 167
4 168 169 170 171
4 172 173 174 175
4 176 177 178 179
18 180 181 182 183 184 185 186 187 188 189 190 191 192 193 194 195 196 197
18 198 199 200 201 202 203 204 205 206 207 208 209 210 211 212 213 214 215
4 216 217 218 219
4 220 221 222 223
4 224 225 226 227
4 228 229 230 231
4 232 233 234 235
4 236 237 238 239
4 240 241 242 243
4 244 245 246 247
4 248 249 250 251
4 252 253 254 255
4 256 257 258 259
4 260 261 262 263
4 264 265 266 267
4 268 269 270 271
4 272 273 274 275
4 276 277 278 279
4 280 281 282 283
4 284 285 286 287
18 288 289 290 291 292 293 294 295 296 297 298 299 300 301 302 303 304 305
18 306 307 308 309 310 311 312 313 314 315 316 317 318 319 320 321 322 323
4 324 325 326 327
4 328 329 330 331
4 332 333 334 335
4 336 337 338 339
4 340 341 342 343
4 344 345 346 347
4 348 349 350 351
4 352 353 354 355
4 356 357 358 359
4 360 361 362 363
4 364 365 366 367
4 368 369 370 371
